<svg version="1.1" viewBox="0.0 0.0 800.0 600.0" fill="none" stroke="none" stroke-linecap="square" stroke-miterlimit="10" xmlns:xlink="http://www.w3.org/1999/xlink" xmlns="http://www.w3.org/2000/svg"><clipPath id="p.0"><path d="m0 0l800.0 0l0 600.0l-800.0 0l0 -600.0z" clip-rule="nonzero"/></clipPath><g clip-path="url(#p.0)"><path fill="#000000" fill-opacity="0.0" d="m0 0l800.0 0l0 600.0l-800.0 0z" fill-rule="evenodd"/><defs><radialGradient id="p.1" gradientUnits="userSpaceOnUse" gradientTransform="matrix(20.92900016484931 0.0 0.0 20.92900016484931 0.0 0.0)" spreadMethod="pad" cx="19.111174205168144" cy="14.332125910683656" fx="19.111174205168144" fy="14.332125910683656" r="20.929000854492188"><stop offset="0.0" stop-color="#d4e5f5"/><stop offset="0.5" stop-color="#cc4125"/><stop offset="1.0" stop-color="#70a4d5"/></radialGradient></defs><path fill="url(#p.1)" d="m276.89542 76.71163c-2.9796753 0 -5.5013733 2.0468903 -7.5651245 6.140671c-2.0637207 4.071419 -3.095581 8.959351 -3.095581 14.663803c0 5.726822 1.0318604 10.592384 3.095581 14.596687c2.075348 3.9819336 4.597046 5.9728928 7.5651245 5.9728928c2.956482 0 5.4897766 -1.9909592 7.599884 -5.9728928c2.121704 -3.9819336 3.1825562 -8.847496 3.1825562 -14.596687c0 -5.726822 -1.0550537 -10.625938 -3.1651611 -14.697357c-2.1101074 -4.071411 -4.6492004 -6.1071167 -7.617279 -6.1071167zm-134.81882 47.038918c0 7.6293945E-6 0 7.6293945E-6 0 7.6293945E-6l0 0l0 -7.6293945E-6zm-87.7012 -30.49601l-9.895035 51.6437c-0.113925934 -0.93167114 -0.25899887 -1.7375488 -0.43525314 -2.417633c-0.49853134 -1.9238434 -0.7478142 -5.167557 -0.7478142 -9.731125c0 -10.760162 1.3333015 -19.70832 3.9999428 -26.844475c2.6782227 -7.136154 5.0375977 -11.352974 7.0781593 -12.650467zm-9.895035 51.6437c0 0 0 0 0 0l0 0l0 0zm325.26877 -6.612076c0.30145264 0 0.45217896 1.3869629 0.45217896 4.1608887c0 4.899124 -0.64346313 9.630463 -1.9304199 14.194031c-1.2869263 4.5411835 -2.968048 8.2434845 -5.043396 11.106903c-2.0637207 2.841034 -3.275299 4.272751 -3.634735 4.295105c0.7652283 -6.8900757 2.2434692 -14.238754 4.434723 -22.04602c2.2028809 -7.8072815 4.110077 -11.710907 5.721649 -11.710907zm-232.49968 2.6844482c0.7768097 0 1.3275299 0.40266418 1.6521454 1.2080078c0.33622742 0.782959 0.50434875 1.420517 0.50434875 1.9126587l-5.078186 46.105408c-0.55651855 4.7648926 -1.5188141 8.422455 -2.886917 10.9726715c-1.368103 2.5278625 -2.6376495 3.7917938 -3.8086472 3.7917938c-0.89273834 0 -1.6405487 -0.54808044 -2.2434464 -1.6442261c-0.59129333 -1.1185303 -0.88694 -4.49646 -0.88694 -10.133804c0 -6.509781 0.61447144 -14.048599 1.8434525 -22.61647c1.2289734 -8.567856 2.834732 -15.636917 4.817322 -21.207138c1.9825745 -5.5926056 4.0115356 -8.388901 6.0868683 -8.388901zm-72.12639 -71.87611c-5.646286 0 -11.275181 2.8745956 -16.886719 8.623795c-5.6115036 5.726822 -10.237526 13.209717 -13.878063 22.4487c-3.6289234 9.216606 -5.4434013 18.567436 -5.4434013 28.052483c0 14.612747 4.7849503 22.278397 14.354893 22.996964l0 0l-15.537485 81.092514l13.286768 0l16.295422 -97.277695l-4.4695015 97.277695l18.451908 0l18.608437 -96.87503l-9.408562 96.87503l19.89537 0l11.8607025 -160.32867l-19.443207 0l-22.03447 112.94816l4.765152 -111.639496c-4.05793 -2.7962952 -7.530327 -4.1944504 -10.417244 -4.1944504zm170.05608 9.529793l-20.504059 5.3353424l-11.595306 105.000565l0 0c-3.1431122 6.558792 -5.836151 11.243698 -8.079102 14.054718c-2.4695282 3.0871124 -5.408615 4.6306763 -8.817261 4.6306763c-2.0869293 0 -3.5245972 -0.77178955 -4.3129883 -2.3153381c-0.7768097 -1.5659332 -1.1652069 -5.134018 -1.1652069 -10.704239c0 -7.3151245 0.6492615 -15.592163 1.9477997 -24.831146c1.3101196 -9.261353 2.8984985 -16.82254 4.765152 -22.683594c1.8666382 -5.8834076 3.4492188 -8.825119 4.747757 -8.825119c0.17391968 0 0.34202576 0.25726318 0.50434875 0.7717743c0.17390442 0.49215698 0.26086426 1.6218567 0.26086426 3.3891144c0 3.064743 -0.58551025 7.6954193 -1.7565002 13.892029c2.6434479 3.3555603 4.78833 5.0333405 6.4346924 5.0333405c2.3651886 0 4.272415 -1.767273 5.7216644 -5.3017883c1.4492493 -3.5569 2.173874 -8.2323 2.173874 -14.026245c0 -6.666382 -1.1246338 -12.203049 -3.3738708 -16.610023c-2.2376556 -4.4293365 -5.808609 -6.644005 -10.712891 -6.644005c-7.246277 0 -13.1940155 4.4852676 -17.843216 13.455795c-4.6492004 8.97052 -7.999893 19.428696 -10.052032 31.374481c-2.0521545 11.945801 -3.0782166 22.896118 -3.0782166 32.850937c0 0.30010986 9.613037E-4 0.5983734 0.00289917 0.8947754l0 0c-0.4640808 1.9306641 -0.9331207 3.4779663 -1.4070892 4.6419067c-1.1478119 2.7962952 -2.3594055 4.1944427 -3.634735 4.1944427c-1.4376678 0 -2.1564941 -1.5211945 -2.1564941 -4.563553c0 -1.9685974 0.12173462 -3.8365173 0.36521912 -5.6037903l8.278137 -75.39944l-19.94754 0l0.13154602 3.1146317c-0.054626465 -0.0771637 -0.110076904 -0.15345001 -0.16633606 -0.22885132c-1.9361877 -2.61734 -4.5970306 -3.9260101 -7.982483 -3.9260101c-6.376732 0 -11.814346 4.205635 -16.31282 12.616913c-4.4984894 8.41127 -7.854965 18.489136 -10.06942 30.233597c-2.202858 11.744461 -3.304306 22.952026 -3.304306 33.62271c0 12.572159 1.5652008 21.967728 4.695587 28.186707c3.1419907 6.196594 7.0549774 9.294907 11.738968 9.294907c3.9651566 0 7.3622055 -1.9574127 10.1911545 -5.872238c2.7396545 -3.7912445 4.2179565 -6.323654 4.434906 -7.5972443l0 0c-0.120224 1.1751556 0.8999939 3.685196 3.0606384 7.530136c2.2376556 3.9595642 5.141968 5.9393463 8.712921 5.9393463c4.39415 0 8.724518 -2.9081573 12.991119 -8.724457c1.0827026 -1.4759369 2.1396332 -3.3934174 3.1708221 -5.7523956l0 0c0.64016724 1.9815063 1.3904114 3.7535553 2.250702 5.316162c3.3738708 6.107132 7.99411 9.16069 13.860687 9.16069c7.348816 0 14.211548 -5.3767548 20.58815 -16.130219l0 0l-1.644165 14.888657l19.930145 0l7.6172943 -69.426544c0.76519775 -4.9886017 1.7043152 -8.847488 2.8173523 -11.576675c1.1130219 -2.7515717 2.231842 -4.12735 3.3564758 -4.12735c1.0782318 0 1.6173553 2.069275 1.6173553 6.207794c0 2.5949554 -0.24346924 6.1518555 -0.730423 10.670685c-0.4753418 4.518814 -0.99128723 9.138306 -1.5478058 13.858459c-0.13912964 0.96191406 -0.41159058 3.1877747 -0.81736755 6.6775665c-0.39421082 3.4897766 -0.7768097 7.136154 -1.1478119 10.939117c-0.3710022 3.8029785 -0.55651855 7.2815704 -0.55651855 10.435806c0 7.6730347 1.2173767 14.1940155 3.6521301 19.562912c2.4347382 5.346527 6.162216 8.019791 11.182449 8.019791c4.2086334 0 8.225967 -2.852234 12.052002 -8.556686c0.7155304 -1.0677643 1.4241791 -2.3789368 2.1259918 -3.9335022l0 0c0.52841187 1.875534 1.1688232 3.555832 1.9212341 5.040848c2.5274963 4.966217 5.814392 7.449341 9.860718 7.449341c3.9074402 0 7.819214 -2.1744995 11.735352 -6.5234833l0 0l-0.579895 5.2819214l19.930145 0l7.617279 -69.426544c0.7652283 -4.9886017 1.7043457 -8.847488 2.8173523 -11.576675c1.1130371 -2.7515717 2.2318726 -4.12735 3.3564758 -4.12735c1.0782471 0 1.6173706 2.069275 1.6173706 6.207794c0 2.5949554 -0.24346924 6.1518555 -0.7304077 10.670685c-0.4753723 4.518814 -0.9913025 9.138306 -1.547821 13.858459c-0.13912964 0.96191406 -0.41159058 3.1877747 -0.8173828 6.6775665c-0.39419556 3.4897766 -0.77679443 7.136154 -1.1477966 10.939117c-0.3710327 3.8029785 -0.55651855 7.2815704 -0.55651855 10.435806c0 7.6730347 1.2173767 14.1940155 3.6521301 19.562912c2.434723 5.346527 6.1622314 8.019791 11.182434 8.019791c4.2086487 0 8.225983 -2.852234 12.052002 -8.556686c0.89697266 -1.3385315 1.7832031 -3.0596008 2.6586304 -5.1632233l0 0c0.5823059 1.6785889 1.2480469 3.1983185 1.9972839 4.5592194c3.3738708 6.107132 7.9535217 9.16069 13.738953 9.16069c11.640411 0 18.91565 -15.402023 21.825775 -46.20607l0 0c-4.904297 8.344162 -8.370911 13.433411 -10.399872 15.267807c-2.0289612 1.8343658 -3.8782043 2.7515564 -5.5477295 2.7515564c-2.9332886 0 -4.399933 -4.272751 -4.399933 -12.818237c0 -0.9619293 0.01159668 -1.6777802 0.03475952 -2.1475677c3.3274841 -0.42503357 7.026001 -2.7515564 11.0954895 -6.9795685c4.0811157 -4.227997 7.379608 -9.887711 9.895538 -16.979126c2.5158997 -7.113785 3.7738342 -14.965805 3.7738342 -23.55603c0 -16.061958 -4.660797 -24.092926 -13.982391 -24.092926c-7.315857 0 -13.315765 4.4852676 -17.999756 13.455795c-4.6839905 8.97052 -8.034668 19.43988 -10.052032 31.408035c-2.0173645 11.945801 -3.0260315 22.884933 -3.0260315 32.817383c0 0.005569458 0 0.011138916 0 0.016693115l0 0c-0.60375977 2.2981262 -1.1412659 3.9927216 -1.6124878 5.0837555c-0.98550415 2.25943 -2.1970825 3.3891296 -3.634735 3.3891296c-0.86953735 0 -1.4318542 -0.29081726 -1.6869202 -0.8724518c-0.24346924 -0.6040039 -0.36520386 -1.7672577 -0.36520386 -3.4897766c0 -2.0357056 0.22027588 -4.9886017 0.66085815 -8.858688c0.45214844 -3.8700867 0.95651245 -7.919113 1.5130005 -12.147125c0.93911743 -7.0914307 1.6637573 -13.153809 2.1738892 -18.187134c0.5217285 -5.05571 0.7825928 -9.71994 0.7825928 -13.992691c0 -9.104752 -1.298523 -15.983643 -3.8955994 -20.636696c-2.5854492 -4.6530457 -5.9825134 -6.979561 -10.191162 -6.979561c-5.4375916 0 -8.718689 1.9126663 -9.843323 5.7380066l1.2695312 -4.8991165l-19.94754 0l-7.5329285 68.61166l0 0c-0.90130615 5.4437866 -1.9754639 9.3394165 -3.2225037 11.686905c-1.4144897 2.6844482 -2.8579407 4.0266724 -4.3303833 4.0266724c-0.99710083 0 -1.6057739 -0.19015503 -1.8260498 -0.5704498c-0.20870972 -0.38031006 -0.31304932 -1.2975006 -0.31304932 -2.7515564c0 -1.990982 0.12173462 -3.8700867 0.36520386 -5.6373444l8.278137 -75.36588l-19.94754 0l-7.5714417 69.018074l0 0c-1.2931366 5.963684 -2.36763 9.936371 -3.2235107 11.91803c-0.9854889 2.25943 -2.197052 3.3891296 -3.6347198 3.3891296c-0.8695526 0 -1.4318542 -0.29081726 -1.6869354 -0.8724518c-0.24346924 -0.6040039 -0.36521912 -1.7672577 -0.36521912 -3.4897766c0 -2.0357056 0.22029114 -4.9886017 0.6608734 -8.858688c0.4521637 -3.8700867 0.9564972 -7.919113 1.5130157 -12.147125c0.93911743 -7.0914307 1.6637421 -13.153809 2.173874 -18.187134c0.5217438 -5.05571 0.78260803 -9.71994 0.78260803 -13.992691c0 -9.104752 -1.2985382 -15.983643 -3.8955994 -20.636696c-2.5854797 -4.6530457 -5.9825287 -6.979561 -10.191162 -6.979561c-5.437607 0 -8.353516 0.52570343 -8.747696 1.5771103l4.8520966 -42.74984z" fill-rule="evenodd"/><defs><radialGradient id="p.2" gradientUnits="userSpaceOnUse" gradientTransform="matrix(20.92900016484931 0.0 0.0 20.92900016484931 0.0 0.0)" spreadMethod="pad" cx="19.111174205168144" cy="14.332125910683656" fx="19.111174205168144" fy="14.332125910683656" r="20.929000854492188"><stop offset="0.0" stop-color="#d4e5f5"/><stop offset="0.5" stop-color="#cc4125"/><stop offset="1.0" stop-color="#70a4d5"/></radialGradient></defs><path fill="url(#p.2)" d="m653.5438 76.71163c-2.9796753 0 -5.501404 2.0468903 -7.5651245 6.140671c-2.0637207 4.071419 -3.095581 8.959351 -3.095581 14.663803c0 5.726822 1.0318604 10.592384 3.095581 14.596687c2.0753174 3.9819336 4.597046 5.9728928 7.5651245 5.9728928c2.956482 0 5.489746 -1.9909592 7.5998535 -5.9728928c2.1217651 -3.9819336 3.1826172 -8.847496 3.1826172 -14.596687c0 -5.726822 -1.0551147 -10.625938 -3.1652222 -14.697357c-2.1101074 -4.071411 -4.64917 -6.1071167 -7.6172485 -6.1071167zm98.78589 46.930786c0 0 0 0 0 0l0 0l0 0zm-232.74988 0.10813141c0 7.6293945E-6 0 7.6293945E-6 0 7.6293945E-6l0 0l0 -7.6293945E-6zm45.997864 4.5462036l0 0l0 0c0 0 0 0 0 0zm19.717651 9.703659c0 0 0 0 0 0l0 0l0 0zm-112.65155 0.28575134c0.30145264 0 0.45214844 1.3869629 0.45214844 4.1608887c0 4.899124 -0.64346313 9.596909 -1.9303894 14.093353c-1.2869568 4.4740753 -2.9680786 8.142822 -5.043396 11.006241c-2.075348 2.8634033 -3.2695312 4.3174896 -3.5825806 4.3622284c0.67245483 -6.9795685 2.1043396 -14.328247 4.2955933 -22.046036c2.1912842 -7.7177887 4.127472 -11.576675 5.8086243 -11.576675zm42.108887 2.6844482c0.77679443 0 1.3275146 0.40266418 1.6521606 1.2080078c0.33618164 0.782959 0.5043335 1.420517 0.5043335 1.9126587l-5.0782166 46.105408c-0.55648804 4.7648926 -1.5187988 8.422455 -2.8869019 10.9726715c-1.368103 2.5278625 -2.6376343 3.7917938 -3.8086548 3.7917938c-0.8927307 0 -1.6405334 -0.54808044 -2.2434387 -1.6442261c-0.5912781 -1.1185303 -0.8869324 -4.49646 -0.8869324 -10.133804c0 -6.509781 0.61447144 -14.048599 1.8434448 -22.61647c1.2289734 -8.567856 2.8347473 -15.636917 4.817322 -21.207138c1.9825745 -5.5926056 4.011566 -8.388901 6.0868835 -8.388901zm232.82745 0c1.1593628 0 1.8608398 0.9842987 2.104309 2.952896l-5.3390503 48.85695c-0.5797119 3.9819336 -1.5130615 7.0131226 -2.7999878 9.093567c-1.2869263 2.0580902 -2.481079 3.0871277 -3.5825806 3.0871277c-0.8927002 0 -1.640564 -0.54808044 -2.2434082 -1.6442261c-0.5913086 -1.1185303 -0.8869629 -4.49646 -0.8869629 -10.133804c0 -6.509781 0.61450195 -14.048599 1.8434448 -22.61647c1.2290039 -8.567856 2.8347778 -15.636917 4.817322 -21.207138c1.982605 -5.5926056 4.0115356 -8.388901 6.086914 -8.388901zm-8.399902 98.45213l-0.5043335 4.798462c-0.56811523 4.9214783 -1.2521362 8.265839 -2.052185 10.033112c-0.7883911 1.7672577 -1.4840088 2.6508942 -2.086914 2.6508942c-0.5797119 0 -1.0666504 -0.33554077 -1.4608154 -1.0066681c-0.39422607 -0.6487427 -0.5913086 -1.1520691 -0.5913086 -1.5099945c0 -3.8700867 0.8463745 -7.158539 2.5390625 -9.865356c1.7043457 -2.6844482 3.0898438 -4.3845825 4.156494 -5.1004486zm-297.20688 -168.28134c-6.156433 0 -12.307068 2.7068176 -18.451904 8.120453c-6.1332397 5.413643 -11.211426 12.605728 -15.234558 21.576256c-4.0231323 8.948158 -6.0346985 18.354912 -6.0346985 28.220253c0 8.456024 1.1767883 14.619064 3.5303955 18.489136c2.3535767 3.8700867 6.469452 5.80513 12.347626 5.80513c0 -3.7806091 -0.24926758 -6.666382 -0.74780273 -8.657349c-0.49853516 -2.0133362 -0.74780273 -5.23468 -0.74780273 -9.664017c0 -10.133789 1.1767883 -18.64573 3.530365 -25.535812c2.3536072 -6.8900833 4.399933 -11.017426 6.139038 -12.382019l0 0l-15.686707 140.83287c2.5506592 -0.6040039 4.312958 -0.90600586 5.286865 -0.90600586c2.7709656 0 5.530365 1.0849762 8.278137 3.254898c2.7478027 2.1699219 5.3448486 4.8767395 7.7911987 8.120453c2.44635 3.2660828 5.4260254 7.6171265 8.938995 13.053131c4.85791 7.4269714 8.944824 13.008392 12.260712 16.744232c3.3158875 3.7582397 6.776703 5.6373596 10.382446 5.6373596c3.7217102 0 6.71875 -3.3555603 8.99118 -10.066681c2.284027 -6.7111206 3.8666382 -17.829224 4.747772 -33.35428l0 0c-4.8115234 3.847702 -8.678131 5.7715607 -11.5998535 5.7715607c-3.2695007 0 -6.457855 -1.2079926 -9.565063 -3.623993c-3.1072083 -2.4160156 -6.9332275 -5.99527 -11.478088 -10.737793c-3.0376587 -3.1989746 -5.6520996 -5.760391 -7.843384 -7.6842346c-2.1912842 -1.9238586 -3.6521301 -3.0647583 -4.382538 -3.4226685l16.53888 -148.75198c-3.6057434 -0.5592575 -5.9361267 -0.8388901 -6.991211 -0.8388901zm29.818268 47.648956c-7.3158264 0 -13.315735 4.4852676 -17.999725 13.455795c-4.6839905 8.97052 -8.034668 19.43988 -10.052032 31.408035c-2.0173645 11.945801 -3.026062 22.884933 -3.026062 32.817383c0 12.505051 1.6811523 21.811142 5.0434265 27.918259c3.3738403 6.107132 7.9940796 9.16069 13.860657 9.16069c8.398346 0 16.161804 -7.0221405 23.290405 -21.066391l0 0c0.78256226 4.7248077 1.9598389 8.648636 3.5317383 11.771484c3.1419678 6.196594 7.054962 9.294907 11.738953 9.294907c3.9651794 0 7.362213 -1.9574127 10.191162 -5.872238c2.7396545 -3.7912445 4.217987 -6.323654 4.434906 -7.5972443l0 0c-0.12023926 1.1751556 0.8999634 3.685196 3.060669 7.530136c2.2376099 3.9595642 5.1419067 5.9393463 8.712891 5.9393463c3.6084595 0 7.173889 -1.9611359 10.696289 -5.8834076l0 0l-0.5095825 4.6418457l19.930115 0l8.782471 -80.39923c1.1594238 -2.0580597 2.1333618 -3.5345154 2.921753 -4.4293365c0.6828003 -0.7637329 1.4711304 -1.2015381 2.3651123 -1.3134155l0 0c-0.005554199 0.4524231 0.035095215 1.0244598 0.12176514 1.7160797c0.33624268 3.3108368 0.92755127 6.1183167 1.7739258 8.42247c0.8463745 2.2817688 2.4405518 3.4226685 4.7825317 3.4226685c3.1071777 0 5.536133 -1.9574127 7.286865 -5.872238c0.444458 -0.9939728 0.83258057 -2.0247192 1.1641846 -3.0922394l0 0l-8.952942 81.54524l19.930176 0l7.6173096 -69.426544c0.76519775 -4.9886017 1.7042847 -8.847488 2.8173218 -11.576675c1.1130371 -2.7515717 2.2318726 -4.12735 3.3564453 -4.12735c1.0782471 0 1.6173706 2.069275 1.6173706 6.207794c0 2.5949554 -0.24346924 6.1518555 -0.7304077 10.670685c-0.4753418 4.518814 -0.991272 9.138306 -1.5477905 13.858459c-0.13916016 0.96191406 -0.4116211 3.1877747 -0.8173828 6.6775665c-0.39422607 3.4897766 -0.77679443 7.136154 -1.1478271 10.939117c-0.37097168 3.8029785 -0.55651855 7.2815704 -0.55651855 10.435806c0 7.6730347 1.2174072 14.1940155 3.6521606 19.562912c2.4347534 5.346527 6.1622314 8.019791 11.182434 8.019791c4.208618 0 8.225952 -2.852234 12.052002 -8.556686c0.71551514 -1.0677643 1.4241943 -2.3789368 2.1259766 -3.9335022l0 0c0.5284424 1.875534 1.1688843 3.555832 1.9212646 5.040848c2.5274658 4.966217 5.814392 7.449341 9.860718 7.449341c3.9074097 0 7.819153 -2.1744843 11.735291 -6.5234375l0 0l-0.579895 5.2818756l19.930176 0l7.6172485 -69.426544c0.7652588 -4.9886017 1.7043457 -8.847488 2.8173828 -11.576675c1.1130371 -2.7515717 2.2318726 -4.12735 3.3564453 -4.12735c1.0782471 0 1.6173706 2.069275 1.6173706 6.207794c0 2.5949554 -0.24346924 6.1518555 -0.7304077 10.670685c-0.4753418 4.518814 -0.991272 9.138306 -1.5477905 13.858459c-0.13916016 0.96191406 -0.41156006 3.1877747 -0.8173828 6.6775665c-0.39416504 3.4897766 -0.77679443 7.136154 -1.1478271 10.939117c-0.3710327 3.8029785 -0.55651855 7.2815704 -0.55651855 10.435806c0 7.6730347 1.2174072 14.1940155 3.6521606 19.562912c2.4347534 5.346527 6.1622314 8.019791 11.182434 8.019791c4.208618 0 8.225952 -2.852234 12.052002 -8.556686c0.8894043 -1.3272247 1.7681885 -3.0305328 2.6364136 -5.1099243l0 0c0.52197266 1.5993042 1.1140137 3.0565338 1.776001 4.371704c2.5705566 5.069565 5.6571045 8.065369 9.259766 8.987427l0 0c-1.3445435 1.8908691 -2.547058 4.12973 -3.607666 6.7165985c-1.8434448 4.518814 -2.7651978 10.290375 -2.7651978 17.314682c0 7.784912 1.5014648 14.160461 4.5043335 19.126709c3.0028076 4.966217 6.446228 7.449341 10.330261 7.449341c4.834717 0 9.263611 -2.852234 13.286804 -8.556671c4.0231323 -5.6820984 6.805664 -15.648102 8.347656 -29.898056l13.5998535 -124.75973l-20.05194 0l0.15838623 3.0065002l0 0c-0.02935791 -0.040489197 -0.05895996 -0.08072662 -0.08880615 -0.12071991c-1.9362183 -2.61734 -4.597046 -3.9260101 -7.982483 -3.9260101c-6.376709 0 -11.814331 4.205635 -16.312805 12.616913c-4.498474 8.41127 -7.8549805 18.489136 -10.069458 30.233597c-2.2028198 11.744461 -3.3042603 22.952026 -3.3042603 33.62271c0 0.0062408447 0 0.012481689 0 0.018722534l0 0c-0.6463623 2.5027466 -1.2186279 4.3308716 -1.7168579 5.4843903c-0.98547363 2.25943 -2.1970215 3.3891296 -3.6347046 3.3891296c-0.8695679 0 -1.4318848 -0.29081726 -1.6869507 -0.8724518c-0.24346924 -0.6040039 -0.36517334 -1.7672577 -0.36517334 -3.4897766c0 -2.0357056 0.22027588 -4.9886017 0.66082764 -8.858688c0.45214844 -3.8700867 0.95654297 -7.919113 1.5130005 -12.147125c0.93914795 -7.0914307 1.6637573 -13.153809 2.1738892 -18.187134c0.5217285 -5.05571 0.7825928 -9.71994 0.7825928 -13.992691c0 -9.104752 -1.298523 -15.983643 -3.8955688 -20.636696c-2.5854492 -4.6530457 -5.982544 -6.979561 -10.191162 -6.979561c-5.437622 0 -8.718689 1.9126663 -9.843323 5.7380066l1.2695312 -4.8991165l-19.94757 0l-7.532959 68.61225l0 0c-0.90130615 5.443466 -1.9754028 9.338898 -3.222412 11.68631c-1.4144897 2.6844482 -2.8579712 4.0266724 -4.3303833 4.0266724c-0.9970703 0 -1.6057739 -0.19015503 -1.8260498 -0.5704498c-0.20874023 -0.38031006 -0.31304932 -1.2975006 -0.31304932 -2.7515564c0 -1.990982 0.1217041 -3.8700867 0.36517334 -5.6373444l8.278198 -75.36588l-19.94757 0l-7.571472 69.018074l0 0c-1.2930908 5.963684 -2.3676147 9.936371 -3.2235107 11.91803c-0.98547363 2.25943 -2.1970825 3.3891296 -3.6347046 3.3891296c-0.8695679 0 -1.4318848 -0.29081726 -1.6869507 -0.8724518c-0.24346924 -0.6040039 -0.36517334 -1.7672577 -0.36517334 -3.4897766c0 -2.0357056 0.22027588 -4.9886017 0.66082764 -8.858688c0.45220947 -3.8700867 0.95654297 -7.919113 1.5130615 -12.147125c0.9390869 -7.0914307 1.6636963 -13.153809 2.1738281 -18.187134c0.52178955 -5.05571 0.7826538 -9.71994 0.7826538 -13.992691c0 -9.104752 -1.298584 -15.983643 -3.89563 -20.636696c-2.5854492 -4.6530457 -5.982544 -6.979561 -10.191162 -6.979561c-5.437622 0 -8.71875 1.9126663 -9.843323 5.7380066l1.2695312 -4.8991165l-19.94751 0l-1.9064941 17.364494l0 0c-0.22277832 -4.324692 -1.0605469 -8.144257 -2.5133667 -11.45871c-1.7042847 -3.9371872 -4.0463257 -5.9057846 -7.02594 -5.9057846c-2.6898193 0 -5.130371 1.2415543 -7.3216553 3.7246704c-1.5267944 1.7236481 -2.479004 3.035698 -2.8566895 3.9361649l1.395813 -7.6608353l-19.94751 0l-7.5930176 69.15885l0 0c-0.94177246 5.724884 -1.9049072 9.796036 -2.8893433 12.213486c-1.1477661 2.7962952 -2.359375 4.1944427 -3.6347046 4.1944427c-1.4376831 0 -2.1564941 -1.5211945 -2.1564941 -4.563553c0 -1.9685974 0.12176514 -3.8365173 0.36523438 -5.6037903l8.278137 -75.39944l-19.94757 0l0.1315918 3.1146317c-0.054626465 -0.0771637 -0.11010742 -0.15345001 -0.16638184 -0.22885132c-1.9361572 -2.61734 -4.596985 -3.9260101 -7.982483 -3.9260101c-6.376709 0 -11.814301 4.205635 -16.312805 12.616913c-4.498474 8.41127 -7.85495 18.489136 -10.0694275 30.233597c-1.9331055 10.306335 -3.018036 20.199219 -3.2547302 29.678665l0 0c-2.4855347 4.9240723 -4.660248 8.554092 -6.52417 10.89006c-2.469513 3.0871124 -5.4086 4.6306763 -8.817261 4.6306763c-2.086914 0 -3.5245972 -0.77178955 -4.3129883 -2.3153381c-0.77679443 -1.5659332 -1.1651917 -5.134018 -1.1651917 -10.704239c0 -1.275116 0.0289917 -2.6844482 0.08694458 -4.228012c3.2927246 -0.42503357 6.9796143 -2.7515564 11.06073 -6.9795685c4.081085 -4.227997 7.37381 -9.898895 9.878113 -17.01268c2.5158997 -7.1138 3.7738647 -14.95462 3.7738647 -23.522476c0 -16.061958 -4.660797 -24.092926 -13.982422 -24.092926z" fill-rule="evenodd"/><defs><radialGradient id="p.3" gradientUnits="userSpaceOnUse" gradientTransform="matrix(20.92900016484931 0.0 0.0 20.92900016484931 0.0 0.0)" spreadMethod="pad" cx="19.111174205168144" cy="14.332125910683656" fx="19.111174205168144" fy="14.332125910683656" r="20.929000854492188"><stop offset="0.0" stop-color="#d4e5f5"/><stop offset="0.5" stop-color="#cc4125"/><stop offset="1.0" stop-color="#70a4d5"/></radialGradient></defs><path fill="url(#p.3)" d="m434.07263 323.68088c-2.9796753 0 -5.5013733 2.0469055 -7.5651245 6.140686c-2.0637512 4.071411 -3.0956116 8.959351 -3.0956116 14.663788c0 5.726837 1.0318604 10.592407 3.0956116 14.59668c2.075348 3.981964 4.597046 5.9729004 7.5651245 5.9729004c2.956482 0 5.4897766 -1.9909363 7.599884 -5.9729004c2.121704 -3.9819336 3.1825562 -8.847504 3.1825562 -14.59668c0 -5.726837 -1.0550537 -10.625946 -3.1651611 -14.697357c-2.1101074 -4.0713806 -4.649231 -6.1071167 -7.617279 -6.1071167zm-124.87952 47.042023c0 0 0 0 0 0l0 0l0 0zm90.872925 4.543091l0 0l0 0c0 0 0 0 0 0zm19.71817 9.713226c0 0 0 0 0 0l0 0l0 0zm-190.73645 -41.78763l-4.6243744 41.896057c-2.0637512 -1.6553955 -4.7767487 -3.1206665 -8.139023 -4.3957825c2.2144623 -8.61264 4.91008 -17.035095 8.086853 -25.267395c3.038208 -7.8732605 4.597061 -11.950897 4.676544 -12.23288zm75.31601 44.74826c0.77679443 0 1.3275146 0.40267944 1.6521606 1.2080078c0.33621216 0.782959 0.5043335 1.3422241 0.5043335 1.6777954l-5.4086304 48.353607c-0.5217285 4.0266724 -1.4434509 7.158539 -2.7651672 9.395569c-1.3217163 2.2370605 -2.521698 3.3555603 -3.599945 3.3555603c-0.8927307 0 -1.640564 -0.5480652 -2.2434387 -1.6442261c-0.5913086 -1.1184998 -0.8869629 -4.4964294 -0.8869629 -10.133789c0 -6.509796 0.61450195 -14.0486145 1.8434753 -22.616455c1.2289429 -8.567871 2.8347168 -15.636932 4.817322 -21.207153c1.9825745 -5.592621 4.0115356 -8.388916 6.086853 -8.388916zm53.425446 -1.0402222c0.6029053 0 1.0260925 0.38031006 1.2695618 1.1408997c0.25506592 0.7382202 0.41159058 1.9909668 0.46954346 3.7582397c-2.1448975 1.744873 -3.2173462 6.3867188 -3.2173462 13.925568c0 7.2256165 0.8695679 11.21875 2.608673 11.97934c-0.35943604 5.0333557 -1.1420288 10.625946 -2.3478088 16.777802c-1.20578 6.1295166 -2.5101013 10.748993 -3.9129639 13.858459c-1.3912964 3.0871277 -2.6028748 4.6306763 -3.634735 4.6306763c-1.2753601 0 -2.1333008 -0.6375427 -2.573883 -1.9126587c-0.44058228 -1.275116 -0.66085815 -4.776062 -0.66085815 -10.502899c0 -6.5992737 0.6492615 -14.305908 1.9477844 -23.119812c1.2985535 -8.836304 2.9101257 -16.129028 4.834717 -21.878265c1.9362183 -5.7715454 3.6753235 -8.657349 5.2173157 -8.657349zm264.5532 22.313995c0.028198242 3.7392883 0.18029785 8.62738 0.4562378 14.664276c0.4173584 7.292755 0.6260376 12.918915 0.6260376 16.878479c0 5.4360046 -0.66082764 9.272522 -1.982544 11.5095825c-1.3101196 2.23703 -3.0028687 3.3555603 -5.078186 3.3555603c-1.5999756 0 -2.718811 -0.7046814 -3.3565063 -2.1140137c-0.1459961 -0.33392334 -0.30932617 -0.68182373 -0.49005127 -1.0437012l0 0c0.06921387 0.002319336 0.13983154 0.003479004 0.21179199 0.003479004c2.052185 0 3.7159424 -1.4876099 4.991272 -4.4628906c1.2869263 -2.9752808 1.9303589 -6.2861023 1.9303589 -9.932465c0 -4.8767395 -0.56225586 -7.885559 -1.6868896 -9.026459c2.088684 -7.775299 3.5482178 -14.385925 4.378479 -19.831848zm-381.78012 -93.14987c-6.481079 0 -13.124466 5.928192 -19.93016 17.784485c-6.8056946 11.833954 -12.938934 26.095093 -18.399734 42.783386c-1.368103 -0.24606323 -2.8347473 -0.3691101 -4.399933 -0.3691101c-4.324585 0 -8.307144 1.2415466 -11.947662 3.7246704c-3.6289368 2.4607239 -6.5506287 5.950531 -8.765091 10.46936c-2.2144623 4.4964294 -3.3216858 9.652832 -3.3216858 15.469116c0 5.1452026 0.8347626 9.138306 2.504303 11.97937c1.6811371 2.841034 3.797058 4.2615356 6.3477325 4.2615356c2.1564941 0 4.0637207 -1.0513916 5.7216644 -3.1542053c1.6579437 -2.1028442 2.4869232 -5.167572 2.4869232 -9.194244c0 -2.1028137 -0.28985596 -4.4069824 -0.8695526 -6.912445c-0.12220764 -0.52822876 -0.25291443 -0.9460449 -0.39213562 -1.25354l0 0c0.92803955 -0.61602783 1.8761292 -1.3055115 2.8442688 -2.0684814c1.6463623 -1.3198242 2.7477875 -2.0133362 3.304306 -2.0804443l0 0c-3.3854675 11.274689 -6.556427 24.864716 -9.512909 40.77005c-2.9448853 15.882996 -4.417328 28.667664 -4.417328 38.354065c0 7.695404 0.9043274 13.500519 2.7129974 17.415344c1.80867 3.914856 3.8666077 6.3420105 6.173828 7.2815857c2.3188019 0.9619446 6.394104 1.4428711 12.225922 1.4428711c-2.5622864 -6.308441 -3.8434296 -11.58783 -3.8434296 -15.838226c0 -10.178528 1.2753448 -23.94751 3.8260345 -41.306946c2.562271 -17.359436 5.628891 -33.477295 9.199875 -48.353638c1.3448944 0.22372437 3.055008 0.85009766 5.130356 1.8791199c2.0869293 1.0290527 3.8492126 2.1811218 5.2868805 3.4562378l-8.434662 76.67453l19.94754 0l17.530197 -158.51666c-3.6057434 -3.131836 -7.2752533 -4.6977844 -11.008545 -4.6977844zm54.822784 175.81744c-0.5763855 4.981964 -1.2646179 8.577057 -2.0646057 10.785278c-0.82318115 2.3265076 -1.4550781 3.4897766 -1.8956299 3.4897766c-0.4753723 0 -0.8289795 -0.24606323 -1.060852 -0.7382202c-0.23190308 -0.49215698 -0.34783936 -1.0849915 -0.34783936 -1.7784424c0 -4.53244 1.7896423 -8.451904 5.368927 -11.758392zm-18.854767 -166.28763l-20.504059 5.335327l-11.756348 106.2706c-0.6029053 5.7939453 -0.90434265 10.558838 -0.90434265 14.294678c0 9.395569 1.2637634 16.587646 3.7912598 21.576263c2.527481 4.966217 5.814392 7.449341 9.860733 7.449341c4.510071 0 9.02594 -2.8969727 13.547638 -8.690918c1.1760864 -1.5031433 2.3162537 -3.4700317 3.4205627 -5.900696l0 0c0.5894165 1.9666138 1.2778625 3.7321777 2.0653992 5.296692c3.1419678 6.1966248 7.054962 9.294922 11.738953 9.294922c0.1927185 0 0.38278198 -0.0021362305 0.5701599 -0.006439209l0 0c-1.0852051 1.2809753 -2.1390076 2.658905 -3.161438 4.1337585c-3.675293 5.324188 -5.51297 12.616913 -5.51297 21.878265c0 7.87442 1.385498 13.891998 4.1564636 18.052887c2.770996 4.1609497 6.1158752 6.241394 10.034637 6.241394c4.904297 0 9.315826 -2.8186646 13.234619 -8.456055c3.930359 -5.614929 6.6549683 -15.614502 8.173798 -29.998688l1.3391113 -12.247803c3.58255 -1.7896118 7.1535034 -5.7827454 10.712891 -11.97934c0.3659973 -0.63739014 0.7270508 -1.329773 1.0831604 -2.0771484l0 0c0.6559143 1.8881226 1.4195251 3.5760193 2.290802 5.0635986c3.5245972 5.99527 8.202789 8.992889 14.034607 8.992889c4.82312 0 9.2578125 -2.7850952 13.304138 -8.355347c4.0579224 -5.570221 7.3274536 -13.310394 9.808563 -23.220459c2.4927368 -9.910095 3.9883423 -20.278778 4.486908 -31.106049c1.2475281 -0.3840332 2.5438843 -0.9641113 3.888977 -1.7402649l0 0l-6.9808655 63.58322l19.930145 0l8.782501 -80.3992c1.1593933 -2.058075 2.1333008 -3.5345154 2.921692 -4.429352c0.6828003 -0.7637329 1.4711914 -1.2015381 2.3651428 -1.3134155l0 0c-0.0055236816 0.4524536 0.035064697 1.0244751 0.12176514 1.716095c0.33624268 3.3108215 0.92755127 6.1183167 1.7738953 8.422455c0.8463745 2.2817688 2.4405518 3.4226685 4.7825623 3.4226685c3.1071777 0 5.536133 -1.9573975 7.2868347 -5.872223c0.4463501 -0.9981384 0.8357849 -2.0332947 1.168335 -3.1055298l0 0l-4.331024 39.479797c-0.60287476 5.7939453 -0.9043274 10.558838 -0.9043274 14.294678c0 9.395569 1.2637329 16.587646 3.7912292 21.576263c2.5275269 4.966217 5.8144226 7.449341 9.860748 7.449341c4.510071 0 9.02594 -2.8969727 13.547638 -8.690918c1.0001526 -1.2782898 1.9743347 -2.8919373 2.9225464 -4.840973l0 0c0.576355 2.300171 1.309082 4.3276978 2.1981812 6.08255c2.5274963 4.966217 5.814392 7.449341 9.860718 7.449341c3.908722 0 7.8217773 -2.1759033 11.739227 -6.5277405l0 0l-0.58377075 5.2861633l19.930145 0l7.617279 -69.42651c0.7652283 -4.988617 1.7043457 -8.847504 2.8173523 -11.576691c1.1130371 -2.7515564 2.2318726 -4.12735 3.3564758 -4.12735c1.0782471 0 1.6173706 2.069275 1.6173706 6.207794c0 2.5949402 -0.24346924 6.1518555 -0.7304077 10.670685c-0.4753723 4.5188293 -0.9913025 9.138336 -1.547821 13.858459c-0.13912964 0.9619446 -0.41159058 3.1877747 -0.8173828 6.6775513c-0.39419556 3.4898071 -0.77679443 7.1361694 -1.1477966 10.939148c-0.3710022 3.802948 -0.55651855 7.281555 -0.55651855 10.435791c0 7.673065 1.2173767 14.194 3.6521301 19.562897c2.4347534 5.346527 6.1622314 8.019806 11.182434 8.019806c3.0883179 0 6.0735474 -1.5357971 8.955872 -4.607422l0 0l-0.36956787 3.3658447l19.930176 0l7.6172485 -69.42651c0.76519775 -5.1228333 1.7159424 -9.060028 2.8521118 -11.811584c1.1478271 -2.7515564 2.3652344 -4.12735 3.6521606 -4.12735c0.64923096 0 0.97387695 1.5995178 0.97387695 4.798462c0 1.4317017 -0.08691406 2.8186646 -0.26086426 4.1608887l-8.382507 76.4061l19.94757 0l7.6173096 -69.42651c0.7536011 -4.988617 1.6868896 -8.847504 2.7999268 -11.576691c1.1130371 -2.7515564 2.237671 -4.12735 3.3739014 -4.12735c1.0782471 0 1.6173096 2.069275 1.6173096 6.207794c0 2.5949402 -0.24346924 6.1518555 -0.7304077 10.670685c-0.4753418 4.5188293 -0.991272 9.138336 -1.5477905 13.858459c-0.13909912 0.9619446 -0.4116211 3.1877747 -0.8173828 6.6775513c-0.39422607 3.4898071 -0.77679443 7.1361694 -1.1478271 10.939148c-0.37097168 3.802948 -0.55651855 7.281555 -0.55651855 10.435791c0 7.673065 1.2174072 14.194 3.6521606 19.562897c2.4347534 5.346527 6.1622314 8.019806 11.182434 8.019806c4.208618 0 8.225952 -2.852234 12.052002 -8.556671c0.4769287 -0.71173096 0.9506836 -1.5315857 1.4213867 -2.4595337l0 0c1.1644897 2.5809937 2.6053467 4.7989807 4.322632 6.653961c2.7130127 2.9081726 5.965149 4.3622437 9.756409 4.3622437c3.6173706 0 7.2056885 -1.2862854 10.765076 -3.8588867c3.5593872 -2.5726318 6.585388 -6.8789062 9.078125 -12.918915c2.5043335 -6.0624084 3.7564697 -13.791351 3.7564697 -23.18692c0 -3.825348 -0.1796875 -9.921295 -0.53912354 -18.287811c-0.8463745 -20.424194 -1.4840698 -40.971375 -1.9130249 -61.641632l-19.634521 5.1004333c-2.121704 13.041962 -4.20282 24.417328 -6.243347 34.12607c-2.0289917 9.686371 -4.3013916 18.869446 -6.817322 27.549133c-1.5187988 1.4988403 -2.9448853 4.272766 -4.2781982 8.321808c-1.2838745 3.8989563 -1.949646 8.399475 -1.9971924 13.501526l0 0c-0.9246826 1.803894 -2.034546 2.7058105 -3.3294678 2.7058105c-0.8695679 0 -1.4318237 -0.29083252 -1.6869507 -0.8724365c-0.24346924 -0.6040039 -0.36517334 -1.767273 -0.36517334 -3.4897766c0 -2.035736 0.22027588 -4.988617 0.66082764 -8.858673c0.45220947 -3.8700867 0.95654297 -7.9191284 1.5130615 -12.147156c0.9390869 -7.0914 1.6637573 -13.153778 2.1738892 -18.187134c0.5217285 -5.055725 0.7825928 -9.71994 0.7825928 -13.992676c0 -9.104736 -1.2927246 -15.983643 -3.8782349 -20.636688c-2.5738525 -4.653076 -5.9767456 -6.9795837 -10.208557 -6.9795837c-6.7940674 0 -11.338928 3.4338684 -13.6345825 10.301575c-0.62609863 -7.001953 -4.6955566 -10.502899 -12.208496 -10.502899c-5.727478 0 -9.188293 1.9797974 -10.382507 5.939331l1.2695923 -4.899109l-19.94757 0l-7.5838013 69.07507l0 0c-1.2875977 5.932007 -2.3579712 9.885681 -3.2111206 11.861053c-0.98553467 2.2593994 -2.1970825 3.3890991 -3.6347656 3.3890991c-0.8695679 0 -1.4318848 -0.29083252 -1.6869507 -0.8724365c-0.24346924 -0.6040039 -0.36517334 -1.767273 -0.36517334 -3.4897766c0 -2.035736 0.22027588 -4.988617 0.66082764 -8.858673c0.45220947 -3.8700867 0.95654297 -7.9191284 1.5130615 -12.147156c0.9390869 -7.0914 1.6636963 -13.153778 2.1738892 -18.187134c0.5217285 -5.055725 0.7825928 -9.71994 0.7825928 -13.992676c0 -9.104736 -1.298523 -15.983643 -3.89563 -20.636688c-2.5854492 -4.653076 -5.9825134 -6.9795837 -10.191132 -6.9795837c-5.437622 0 -8.353516 0.5257263 -8.747711 1.5771179l4.852112 -42.749817l-20.504059 5.335327l-11.569244 104.764404l0 0c-0.9185791 5.718231 -2.0212097 9.788391 -3.3078918 12.210419c-1.4144897 2.6844482 -2.8579407 4.0266724 -4.3303833 4.0266724c-0.9970703 0 -1.6057739 -0.19015503 -1.8260498 -0.5704346c-0.20870972 -0.38027954 -0.31304932 -1.2974548 -0.31304932 -2.7515564c0 -1.9909668 0.12173462 -3.8588867 0.36520386 -5.6037903l6.4694824 -58.554535l6.4346924 0l1.7391052 -16.84491l-6.3651123 0l3.7042847 -33.35428l-20.486664 5.3353577l-3.1477966 28.01892l-3.565155 0l-1.7391052 16.84491l3.4956055 0l-5.720001 51.635498l0 0c-0.9057312 5.512451 -1.9870911 9.451813 -3.2441711 11.818146c-1.4144592 2.6844482 -2.8579102 4.0266724 -4.330353 4.0266724c-0.99710083 0 -1.6057739 -0.19015503 -1.8260803 -0.5704346c-0.2086792 -0.38027954 -0.3130188 -1.2974548 -0.3130188 -2.7515564c0 -1.9909668 0.12173462 -3.8700867 0.36520386 -5.6373596l8.278137 -75.365875l-19.94754 0l-1.9059753 17.374054l0 0c-0.2220459 -4.3286133 -1.0599976 -8.151367 -2.5138245 -11.468262c-1.7043457 -3.9371948 -4.0463257 -5.905792 -7.026001 -5.905792c-2.6898193 0 -5.130371 1.2415466 -7.3216248 3.7246704c-1.5267639 1.7236633 -2.479004 3.0357056 -2.85672 3.9361572l1.395874 -7.6608276l-19.94754 0l-3.160492 28.786224l0 0c-2.0766602 1.5154114 -3.933075 2.4058838 -5.5692444 2.6714478l0 0c-0.54992676 -22.202148 -5.8382263 -33.303223 -15.86496 -33.303223c-7.2926636 0 -13.321564 4.48526 -18.0867 13.45578c-4.7535706 8.948181 -8.179596 19.406372 -10.278137 31.374512c-2.086914 11.94577 -3.130371 22.82898 -3.130371 32.649597c0 0.45791626 0.0023498535 0.9114685 0.007019043 1.3606873l0 0c-1.0176086 4.446686 -2.063446 7.8184814 -3.1375427 10.115326c-1.8202515 3.892456 -3.0260315 6.028839 -3.61734 6.4091187l10.330292 -93.51947l-19.94754 0l0.13375854 3.1177368c-0.05532837 -0.07821655 -0.11151123 -0.1555481 -0.16854858 -0.23196411c-1.9361877 -2.6173096 -4.5970154 -3.9259949 -7.982483 -3.9259949c-6.376709 0 -11.814331 4.2056274 -16.312805 12.616913c-4.4985046 8.411285 -7.8549805 18.489136 -10.0694275 30.233582c-2.2028809 11.744476 -3.3042908 22.952057 -3.3042908 33.62271c0 0.13687134 1.8310547E-4 0.27331543 5.493164E-4 0.4093933l0 0c-0.51937866 1.8428345 -1.0786743 3.328247 -1.677887 4.4561768c-1.4144592 2.6844482 -2.8579407 4.0266724 -4.3303833 4.0266724c-0.9970703 0 -1.6057739 -0.19015503 -1.8260498 -0.5704346c-0.2086792 -0.38027954 -0.31304932 -1.2974548 -0.31304932 -2.7515564c0 -1.9909668 0.12176514 -3.8588867 0.36523438 -5.6037903l12.956329 -117.41104z" fill-rule="evenodd"/><path stroke="#ffffff" stroke-width="2.0" stroke-linejoin="round" stroke-linecap="butt" d="m276.89542 76.71163c-2.9796753 0 -5.5013733 2.0468903 -7.5651245 6.140671c-2.0637207 4.071419 -3.095581 8.959351 -3.095581 14.663803c0 5.726822 1.0318604 10.592384 3.095581 14.596687c2.075348 3.9819336 4.597046 5.9728928 7.5651245 5.9728928c2.956482 0 5.4897766 -1.9909592 7.599884 -5.9728928c2.121704 -3.9819336 3.1825562 -8.847496 3.1825562 -14.596687c0 -5.726822 -1.0550537 -10.625938 -3.1651611 -14.697357c-2.1101074 -4.071411 -4.6492004 -6.1071167 -7.617279 -6.1071167zm-134.81882 47.038918c0 7.6293945E-6 0 7.6293945E-6 0 7.6293945E-6l0 0l0 -7.6293945E-6zm-87.7012 -30.49601l-9.895035 51.6437c-0.113925934 -0.93167114 -0.25899887 -1.7375488 -0.43525314 -2.417633c-0.49853134 -1.9238434 -0.7478142 -5.167557 -0.7478142 -9.731125c0 -10.760162 1.3333015 -19.70832 3.9999428 -26.844475c2.6782227 -7.136154 5.0375977 -11.352974 7.0781593 -12.650467zm-9.895035 51.6437c0 0 0 0 0 0l0 0l0 0zm325.26877 -6.612076c0.30145264 0 0.45217896 1.3869629 0.45217896 4.1608887c0 4.899124 -0.64346313 9.630463 -1.9304199 14.194031c-1.2869263 4.5411835 -2.968048 8.2434845 -5.043396 11.106903c-2.0637207 2.841034 -3.275299 4.272751 -3.634735 4.295105c0.7652283 -6.8900757 2.2434692 -14.238754 4.434723 -22.04602c2.2028809 -7.8072815 4.110077 -11.710907 5.721649 -11.710907zm-232.49968 2.6844482c0.7768097 0 1.3275299 0.40266418 1.6521454 1.2080078c0.33622742 0.782959 0.50434875 1.420517 0.50434875 1.9126587l-5.078186 46.105408c-0.55651855 4.7648926 -1.5188141 8.422455 -2.886917 10.9726715c-1.368103 2.5278625 -2.6376495 3.7917938 -3.8086472 3.7917938c-0.89273834 0 -1.6405487 -0.54808044 -2.2434464 -1.6442261c-0.59129333 -1.1185303 -0.88694 -4.49646 -0.88694 -10.133804c0 -6.509781 0.61447144 -14.048599 1.8434525 -22.61647c1.2289734 -8.567856 2.834732 -15.636917 4.817322 -21.207138c1.9825745 -5.5926056 4.0115356 -8.388901 6.0868683 -8.388901zm-72.12639 -71.87611c-5.646286 0 -11.275181 2.8745956 -16.886719 8.623795c-5.6115036 5.726822 -10.237526 13.209717 -13.878063 22.4487c-3.6289234 9.216606 -5.4434013 18.567436 -5.4434013 28.052483c0 14.612747 4.7849503 22.278397 14.354893 22.996964l0 0l-15.537485 81.092514l13.286768 0l16.295422 -97.277695l-4.4695015 97.277695l18.451908 0l18.608437 -96.87503l-9.408562 96.87503l19.89537 0l11.8607025 -160.32867l-19.443207 0l-22.03447 112.94816l4.765152 -111.639496c-4.05793 -2.7962952 -7.530327 -4.1944504 -10.417244 -4.1944504zm170.05608 9.529793l-20.504059 5.3353424l-11.595306 105.000565l0 0c-3.1431122 6.558792 -5.836151 11.243698 -8.079102 14.054718c-2.4695282 3.0871124 -5.408615 4.6306763 -8.817261 4.6306763c-2.0869293 0 -3.5245972 -0.77178955 -4.3129883 -2.3153381c-0.7768097 -1.5659332 -1.1652069 -5.134018 -1.1652069 -10.704239c0 -7.3151245 0.6492615 -15.592163 1.9477997 -24.831146c1.3101196 -9.261353 2.8984985 -16.82254 4.765152 -22.683594c1.8666382 -5.8834076 3.4492188 -8.825119 4.747757 -8.825119c0.17391968 0 0.34202576 0.25726318 0.50434875 0.7717743c0.17390442 0.49215698 0.26086426 1.6218567 0.26086426 3.3891144c0 3.064743 -0.58551025 7.6954193 -1.7565002 13.892029c2.6434479 3.3555603 4.78833 5.0333405 6.4346924 5.0333405c2.3651886 0 4.272415 -1.767273 5.7216644 -5.3017883c1.4492493 -3.5569 2.173874 -8.2323 2.173874 -14.026245c0 -6.666382 -1.1246338 -12.203049 -3.3738708 -16.610023c-2.2376556 -4.4293365 -5.808609 -6.644005 -10.712891 -6.644005c-7.246277 0 -13.1940155 4.4852676 -17.843216 13.455795c-4.6492004 8.97052 -7.999893 19.428696 -10.052032 31.374481c-2.0521545 11.945801 -3.0782166 22.896118 -3.0782166 32.850937c0 0.30010986 9.613037E-4 0.5983734 0.00289917 0.8947754l0 0c-0.4640808 1.9306641 -0.9331207 3.4779663 -1.4070892 4.6419067c-1.1478119 2.7962952 -2.3594055 4.1944427 -3.634735 4.1944427c-1.4376678 0 -2.1564941 -1.5211945 -2.1564941 -4.563553c0 -1.9685974 0.12173462 -3.8365173 0.36521912 -5.6037903l8.278137 -75.39944l-19.94754 0l0.13154602 3.1146317c-0.054626465 -0.0771637 -0.110076904 -0.15345001 -0.16633606 -0.22885132c-1.9361877 -2.61734 -4.5970306 -3.9260101 -7.982483 -3.9260101c-6.376732 0 -11.814346 4.205635 -16.31282 12.616913c-4.4984894 8.41127 -7.854965 18.489136 -10.06942 30.233597c-2.202858 11.744461 -3.304306 22.952026 -3.304306 33.62271c0 12.572159 1.5652008 21.967728 4.695587 28.186707c3.1419907 6.196594 7.0549774 9.294907 11.738968 9.294907c3.9651566 0 7.3622055 -1.9574127 10.1911545 -5.872238c2.7396545 -3.7912445 4.2179565 -6.323654 4.434906 -7.5972443l0 0c-0.120224 1.1751556 0.8999939 3.685196 3.0606384 7.530136c2.2376556 3.9595642 5.141968 5.9393463 8.712921 5.9393463c4.39415 0 8.724518 -2.9081573 12.991119 -8.724457c1.0827026 -1.4759369 2.1396332 -3.3934174 3.1708221 -5.7523956l0 0c0.64016724 1.9815063 1.3904114 3.7535553 2.250702 5.316162c3.3738708 6.107132 7.99411 9.16069 13.860687 9.16069c7.348816 0 14.211548 -5.3767548 20.58815 -16.130219l0 0l-1.644165 14.888657l19.930145 0l7.6172943 -69.426544c0.76519775 -4.9886017 1.7043152 -8.847488 2.8173523 -11.576675c1.1130219 -2.7515717 2.231842 -4.12735 3.3564758 -4.12735c1.0782318 0 1.6173553 2.069275 1.6173553 6.207794c0 2.5949554 -0.24346924 6.1518555 -0.730423 10.670685c-0.4753418 4.518814 -0.99128723 9.138306 -1.5478058 13.858459c-0.13912964 0.96191406 -0.41159058 3.1877747 -0.81736755 6.6775665c-0.39421082 3.4897766 -0.7768097 7.136154 -1.1478119 10.939117c-0.3710022 3.8029785 -0.55651855 7.2815704 -0.55651855 10.435806c0 7.6730347 1.2173767 14.1940155 3.6521301 19.562912c2.4347382 5.346527 6.162216 8.019791 11.182449 8.019791c4.2086334 0 8.225967 -2.852234 12.052002 -8.556686c0.7155304 -1.0677643 1.4241791 -2.3789368 2.1259918 -3.9335022l0 0c0.52841187 1.875534 1.1688232 3.555832 1.9212341 5.040848c2.5274963 4.966217 5.814392 7.449341 9.860718 7.449341c3.9074402 0 7.819214 -2.1744995 11.735352 -6.5234833l0 0l-0.579895 5.2819214l19.930145 0l7.617279 -69.426544c0.7652283 -4.9886017 1.7043457 -8.847488 2.8173523 -11.576675c1.1130371 -2.7515717 2.2318726 -4.12735 3.3564758 -4.12735c1.0782471 0 1.6173706 2.069275 1.6173706 6.207794c0 2.5949554 -0.24346924 6.1518555 -0.7304077 10.670685c-0.4753723 4.518814 -0.9913025 9.138306 -1.547821 13.858459c-0.13912964 0.96191406 -0.41159058 3.1877747 -0.8173828 6.6775665c-0.39419556 3.4897766 -0.77679443 7.136154 -1.1477966 10.939117c-0.3710327 3.8029785 -0.55651855 7.2815704 -0.55651855 10.435806c0 7.6730347 1.2173767 14.1940155 3.6521301 19.562912c2.434723 5.346527 6.1622314 8.019791 11.182434 8.019791c4.2086487 0 8.225983 -2.852234 12.052002 -8.556686c0.89697266 -1.3385315 1.7832031 -3.0596008 2.6586304 -5.1632233l0 0c0.5823059 1.6785889 1.2480469 3.1983185 1.9972839 4.5592194c3.3738708 6.107132 7.9535217 9.16069 13.738953 9.16069c11.640411 0 18.91565 -15.402023 21.825775 -46.20607l0 0c-4.904297 8.344162 -8.370911 13.433411 -10.399872 15.267807c-2.0289612 1.8343658 -3.8782043 2.7515564 -5.5477295 2.7515564c-2.9332886 0 -4.399933 -4.272751 -4.399933 -12.818237c0 -0.9619293 0.01159668 -1.6777802 0.03475952 -2.1475677c3.3274841 -0.42503357 7.026001 -2.7515564 11.0954895 -6.9795685c4.0811157 -4.227997 7.379608 -9.887711 9.895538 -16.979126c2.5158997 -7.113785 3.7738342 -14.965805 3.7738342 -23.55603c0 -16.061958 -4.660797 -24.092926 -13.982391 -24.092926c-7.315857 0 -13.315765 4.4852676 -17.999756 13.455795c-4.6839905 8.97052 -8.034668 19.43988 -10.052032 31.408035c-2.0173645 11.945801 -3.0260315 22.884933 -3.0260315 32.817383c0 0.005569458 0 0.011138916 0 0.016693115l0 0c-0.60375977 2.2981262 -1.1412659 3.9927216 -1.6124878 5.0837555c-0.98550415 2.25943 -2.1970825 3.3891296 -3.634735 3.3891296c-0.86953735 0 -1.4318542 -0.29081726 -1.6869202 -0.8724518c-0.24346924 -0.6040039 -0.36520386 -1.7672577 -0.36520386 -3.4897766c0 -2.0357056 0.22027588 -4.9886017 0.66085815 -8.858688c0.45214844 -3.8700867 0.95651245 -7.919113 1.5130005 -12.147125c0.93911743 -7.0914307 1.6637573 -13.153809 2.1738892 -18.187134c0.5217285 -5.05571 0.7825928 -9.71994 0.7825928 -13.992691c0 -9.104752 -1.298523 -15.983643 -3.8955994 -20.636696c-2.5854492 -4.6530457 -5.9825134 -6.979561 -10.191162 -6.979561c-5.4375916 0 -8.718689 1.9126663 -9.843323 5.7380066l1.2695312 -4.8991165l-19.94754 0l-7.5329285 68.61166l0 0c-0.90130615 5.4437866 -1.9754639 9.3394165 -3.2225037 11.686905c-1.4144897 2.6844482 -2.8579407 4.0266724 -4.3303833 4.0266724c-0.99710083 0 -1.6057739 -0.19015503 -1.8260498 -0.5704498c-0.20870972 -0.38031006 -0.31304932 -1.2975006 -0.31304932 -2.7515564c0 -1.990982 0.12173462 -3.8700867 0.36520386 -5.6373444l8.278137 -75.36588l-19.94754 0l-7.5714417 69.018074l0 0c-1.2931366 5.963684 -2.36763 9.936371 -3.2235107 11.91803c-0.9854889 2.25943 -2.197052 3.3891296 -3.6347198 3.3891296c-0.8695526 0 -1.4318542 -0.29081726 -1.6869354 -0.8724518c-0.24346924 -0.6040039 -0.36521912 -1.7672577 -0.36521912 -3.4897766c0 -2.0357056 0.22029114 -4.9886017 0.6608734 -8.858688c0.4521637 -3.8700867 0.9564972 -7.919113 1.5130157 -12.147125c0.93911743 -7.0914307 1.6637421 -13.153809 2.173874 -18.187134c0.5217438 -5.05571 0.78260803 -9.71994 0.78260803 -13.992691c0 -9.104752 -1.2985382 -15.983643 -3.8955994 -20.636696c-2.5854797 -4.6530457 -5.9825287 -6.979561 -10.191162 -6.979561c-5.437607 0 -8.353516 0.52570343 -8.747696 1.5771103l4.8520966 -42.74984z" fill-rule="evenodd"/><path stroke="#ffffff" stroke-width="2.0" stroke-linejoin="round" stroke-linecap="butt" d="m653.5438 76.71163c-2.9796753 0 -5.501404 2.0468903 -7.5651245 6.140671c-2.0637207 4.071419 -3.095581 8.959351 -3.095581 14.663803c0 5.726822 1.0318604 10.592384 3.095581 14.596687c2.0753174 3.9819336 4.597046 5.9728928 7.5651245 5.9728928c2.956482 0 5.489746 -1.9909592 7.5998535 -5.9728928c2.1217651 -3.9819336 3.1826172 -8.847496 3.1826172 -14.596687c0 -5.726822 -1.0551147 -10.625938 -3.1652222 -14.697357c-2.1101074 -4.071411 -4.64917 -6.1071167 -7.6172485 -6.1071167zm98.78589 46.930786c0 0 0 0 0 0l0 0l0 0zm-232.74988 0.10813141c0 7.6293945E-6 0 7.6293945E-6 0 7.6293945E-6l0 0l0 -7.6293945E-6zm45.997864 4.5462036l0 0l0 0c0 0 0 0 0 0zm19.717651 9.703659c0 0 0 0 0 0l0 0l0 0zm-112.65155 0.28575134c0.30145264 0 0.45214844 1.3869629 0.45214844 4.1608887c0 4.899124 -0.64346313 9.596909 -1.9303894 14.093353c-1.2869568 4.4740753 -2.9680786 8.142822 -5.043396 11.006241c-2.075348 2.8634033 -3.2695312 4.3174896 -3.5825806 4.3622284c0.67245483 -6.9795685 2.1043396 -14.328247 4.2955933 -22.046036c2.1912842 -7.7177887 4.127472 -11.576675 5.8086243 -11.576675zm42.108887 2.6844482c0.77679443 0 1.3275146 0.40266418 1.6521606 1.2080078c0.33618164 0.782959 0.5043335 1.420517 0.5043335 1.9126587l-5.0782166 46.105408c-0.55648804 4.7648926 -1.5187988 8.422455 -2.8869019 10.9726715c-1.368103 2.5278625 -2.6376343 3.7917938 -3.8086548 3.7917938c-0.8927307 0 -1.6405334 -0.54808044 -2.2434387 -1.6442261c-0.5912781 -1.1185303 -0.8869324 -4.49646 -0.8869324 -10.133804c0 -6.509781 0.61447144 -14.048599 1.8434448 -22.61647c1.2289734 -8.567856 2.8347473 -15.636917 4.817322 -21.207138c1.9825745 -5.5926056 4.011566 -8.388901 6.0868835 -8.388901zm232.82745 0c1.1593628 0 1.8608398 0.9842987 2.104309 2.952896l-5.3390503 48.85695c-0.5797119 3.9819336 -1.5130615 7.0131226 -2.7999878 9.093567c-1.2869263 2.0580902 -2.481079 3.0871277 -3.5825806 3.0871277c-0.8927002 0 -1.640564 -0.54808044 -2.2434082 -1.6442261c-0.5913086 -1.1185303 -0.8869629 -4.49646 -0.8869629 -10.133804c0 -6.509781 0.61450195 -14.048599 1.8434448 -22.61647c1.2290039 -8.567856 2.8347778 -15.636917 4.817322 -21.207138c1.982605 -5.5926056 4.0115356 -8.388901 6.086914 -8.388901zm-8.399902 98.45213l-0.5043335 4.798462c-0.56811523 4.9214783 -1.2521362 8.265839 -2.052185 10.033112c-0.7883911 1.7672577 -1.4840088 2.6508942 -2.086914 2.6508942c-0.5797119 0 -1.0666504 -0.33554077 -1.4608154 -1.0066681c-0.39422607 -0.6487427 -0.5913086 -1.1520691 -0.5913086 -1.5099945c0 -3.8700867 0.8463745 -7.158539 2.5390625 -9.865356c1.7043457 -2.6844482 3.0898438 -4.3845825 4.156494 -5.1004486zm-297.20688 -168.28134c-6.156433 0 -12.307068 2.7068176 -18.451904 8.120453c-6.1332397 5.413643 -11.211426 12.605728 -15.234558 21.576256c-4.0231323 8.948158 -6.0346985 18.354912 -6.0346985 28.220253c0 8.456024 1.1767883 14.619064 3.5303955 18.489136c2.3535767 3.8700867 6.469452 5.80513 12.347626 5.80513c0 -3.7806091 -0.24926758 -6.666382 -0.74780273 -8.657349c-0.49853516 -2.0133362 -0.74780273 -5.23468 -0.74780273 -9.664017c0 -10.133789 1.1767883 -18.64573 3.530365 -25.535812c2.3536072 -6.8900833 4.399933 -11.017426 6.139038 -12.382019l0 0l-15.686707 140.83287c2.5506592 -0.6040039 4.312958 -0.90600586 5.286865 -0.90600586c2.7709656 0 5.530365 1.0849762 8.278137 3.254898c2.7478027 2.1699219 5.3448486 4.8767395 7.7911987 8.120453c2.44635 3.2660828 5.4260254 7.6171265 8.938995 13.053131c4.85791 7.4269714 8.944824 13.008392 12.260712 16.744232c3.3158875 3.7582397 6.776703 5.6373596 10.382446 5.6373596c3.7217102 0 6.71875 -3.3555603 8.99118 -10.066681c2.284027 -6.7111206 3.8666382 -17.829224 4.747772 -33.35428l0 0c-4.8115234 3.847702 -8.678131 5.7715607 -11.5998535 5.7715607c-3.2695007 0 -6.457855 -1.2079926 -9.565063 -3.623993c-3.1072083 -2.4160156 -6.9332275 -5.99527 -11.478088 -10.737793c-3.0376587 -3.1989746 -5.6520996 -5.760391 -7.843384 -7.6842346c-2.1912842 -1.9238586 -3.6521301 -3.0647583 -4.382538 -3.4226685l16.53888 -148.75198c-3.6057434 -0.5592575 -5.9361267 -0.8388901 -6.991211 -0.8388901zm29.818268 47.648956c-7.3158264 0 -13.315735 4.4852676 -17.999725 13.455795c-4.6839905 8.97052 -8.034668 19.43988 -10.052032 31.408035c-2.0173645 11.945801 -3.026062 22.884933 -3.026062 32.817383c0 12.505051 1.6811523 21.811142 5.0434265 27.918259c3.3738403 6.107132 7.9940796 9.16069 13.860657 9.16069c8.398346 0 16.161804 -7.0221405 23.290405 -21.066391l0 0c0.78256226 4.7248077 1.9598389 8.648636 3.5317383 11.771484c3.1419678 6.196594 7.054962 9.294907 11.738953 9.294907c3.9651794 0 7.362213 -1.9574127 10.191162 -5.872238c2.7396545 -3.7912445 4.217987 -6.323654 4.434906 -7.5972443l0 0c-0.12023926 1.1751556 0.8999634 3.685196 3.060669 7.530136c2.2376099 3.9595642 5.1419067 5.9393463 8.712891 5.9393463c3.6084595 0 7.173889 -1.9611359 10.696289 -5.8834076l0 0l-0.5095825 4.6418457l19.930115 0l8.782471 -80.39923c1.1594238 -2.0580597 2.1333618 -3.5345154 2.921753 -4.4293365c0.6828003 -0.7637329 1.4711304 -1.2015381 2.3651123 -1.3134155l0 0c-0.005554199 0.4524231 0.035095215 1.0244598 0.12176514 1.7160797c0.33624268 3.3108368 0.92755127 6.1183167 1.7739258 8.42247c0.8463745 2.2817688 2.4405518 3.4226685 4.7825317 3.4226685c3.1071777 0 5.536133 -1.9574127 7.286865 -5.872238c0.444458 -0.9939728 0.83258057 -2.0247192 1.1641846 -3.0922394l0 0l-8.952942 81.54524l19.930176 0l7.6173096 -69.426544c0.76519775 -4.9886017 1.7042847 -8.847488 2.8173218 -11.576675c1.1130371 -2.7515717 2.2318726 -4.12735 3.3564453 -4.12735c1.0782471 0 1.6173706 2.069275 1.6173706 6.207794c0 2.5949554 -0.24346924 6.1518555 -0.7304077 10.670685c-0.4753418 4.518814 -0.991272 9.138306 -1.5477905 13.858459c-0.13916016 0.96191406 -0.4116211 3.1877747 -0.8173828 6.6775665c-0.39422607 3.4897766 -0.77679443 7.136154 -1.1478271 10.939117c-0.37097168 3.8029785 -0.55651855 7.2815704 -0.55651855 10.435806c0 7.6730347 1.2174072 14.1940155 3.6521606 19.562912c2.4347534 5.346527 6.1622314 8.019791 11.182434 8.019791c4.208618 0 8.225952 -2.852234 12.052002 -8.556686c0.71551514 -1.0677643 1.4241943 -2.3789368 2.1259766 -3.9335022l0 0c0.5284424 1.875534 1.1688843 3.555832 1.9212646 5.040848c2.5274658 4.966217 5.814392 7.449341 9.860718 7.449341c3.9074097 0 7.819153 -2.1744843 11.735291 -6.5234375l0 0l-0.579895 5.2818756l19.930176 0l7.6172485 -69.426544c0.7652588 -4.9886017 1.7043457 -8.847488 2.8173828 -11.576675c1.1130371 -2.7515717 2.2318726 -4.12735 3.3564453 -4.12735c1.0782471 0 1.6173706 2.069275 1.6173706 6.207794c0 2.5949554 -0.24346924 6.1518555 -0.7304077 10.670685c-0.4753418 4.518814 -0.991272 9.138306 -1.5477905 13.858459c-0.13916016 0.96191406 -0.41156006 3.1877747 -0.8173828 6.6775665c-0.39416504 3.4897766 -0.77679443 7.136154 -1.1478271 10.939117c-0.3710327 3.8029785 -0.55651855 7.2815704 -0.55651855 10.435806c0 7.6730347 1.2174072 14.1940155 3.6521606 19.562912c2.4347534 5.346527 6.1622314 8.019791 11.182434 8.019791c4.208618 0 8.225952 -2.852234 12.052002 -8.556686c0.8894043 -1.3272247 1.7681885 -3.0305328 2.6364136 -5.1099243l0 0c0.52197266 1.5993042 1.1140137 3.0565338 1.776001 4.371704c2.5705566 5.069565 5.6571045 8.065369 9.259766 8.987427l0 0c-1.3445435 1.8908691 -2.547058 4.12973 -3.607666 6.7165985c-1.8434448 4.518814 -2.7651978 10.290375 -2.7651978 17.314682c0 7.784912 1.5014648 14.160461 4.5043335 19.126709c3.0028076 4.966217 6.446228 7.449341 10.330261 7.449341c4.834717 0 9.263611 -2.852234 13.286804 -8.556671c4.0231323 -5.6820984 6.805664 -15.648102 8.347656 -29.898056l13.5998535 -124.75973l-20.05194 0l0.15838623 3.0065002l0 0c-0.02935791 -0.040489197 -0.05895996 -0.08072662 -0.08880615 -0.12071991c-1.9362183 -2.61734 -4.597046 -3.9260101 -7.982483 -3.9260101c-6.376709 0 -11.814331 4.205635 -16.312805 12.616913c-4.498474 8.41127 -7.8549805 18.489136 -10.069458 30.233597c-2.2028198 11.744461 -3.3042603 22.952026 -3.3042603 33.62271c0 0.0062408447 0 0.012481689 0 0.018722534l0 0c-0.6463623 2.5027466 -1.2186279 4.3308716 -1.7168579 5.4843903c-0.98547363 2.25943 -2.1970215 3.3891296 -3.6347046 3.3891296c-0.8695679 0 -1.4318848 -0.29081726 -1.6869507 -0.8724518c-0.24346924 -0.6040039 -0.36517334 -1.7672577 -0.36517334 -3.4897766c0 -2.0357056 0.22027588 -4.9886017 0.66082764 -8.858688c0.45214844 -3.8700867 0.95654297 -7.919113 1.5130005 -12.147125c0.93914795 -7.0914307 1.6637573 -13.153809 2.1738892 -18.187134c0.5217285 -5.05571 0.7825928 -9.71994 0.7825928 -13.992691c0 -9.104752 -1.298523 -15.983643 -3.8955688 -20.636696c-2.5854492 -4.6530457 -5.982544 -6.979561 -10.191162 -6.979561c-5.437622 0 -8.718689 1.9126663 -9.843323 5.7380066l1.2695312 -4.8991165l-19.94757 0l-7.532959 68.61225l0 0c-0.90130615 5.443466 -1.9754028 9.338898 -3.222412 11.68631c-1.4144897 2.6844482 -2.8579712 4.0266724 -4.3303833 4.0266724c-0.9970703 0 -1.6057739 -0.19015503 -1.8260498 -0.5704498c-0.20874023 -0.38031006 -0.31304932 -1.2975006 -0.31304932 -2.7515564c0 -1.990982 0.1217041 -3.8700867 0.36517334 -5.6373444l8.278198 -75.36588l-19.94757 0l-7.571472 69.018074l0 0c-1.2930908 5.963684 -2.3676147 9.936371 -3.2235107 11.91803c-0.98547363 2.25943 -2.1970825 3.3891296 -3.6347046 3.3891296c-0.8695679 0 -1.4318848 -0.29081726 -1.6869507 -0.8724518c-0.24346924 -0.6040039 -0.36517334 -1.7672577 -0.36517334 -3.4897766c0 -2.0357056 0.22027588 -4.9886017 0.66082764 -8.858688c0.45220947 -3.8700867 0.95654297 -7.919113 1.5130615 -12.147125c0.9390869 -7.0914307 1.6636963 -13.153809 2.1738281 -18.187134c0.52178955 -5.05571 0.7826538 -9.71994 0.7826538 -13.992691c0 -9.104752 -1.298584 -15.983643 -3.89563 -20.636696c-2.5854492 -4.6530457 -5.982544 -6.979561 -10.191162 -6.979561c-5.437622 0 -8.71875 1.9126663 -9.843323 5.7380066l1.2695312 -4.8991165l-19.94751 0l-1.9064941 17.364494l0 0c-0.22277832 -4.324692 -1.0605469 -8.144257 -2.5133667 -11.45871c-1.7042847 -3.9371872 -4.0463257 -5.9057846 -7.02594 -5.9057846c-2.6898193 0 -5.130371 1.2415543 -7.3216553 3.7246704c-1.5267944 1.7236481 -2.479004 3.035698 -2.8566895 3.9361649l1.395813 -7.6608353l-19.94751 0l-7.5930176 69.15885l0 0c-0.94177246 5.724884 -1.9049072 9.796036 -2.8893433 12.213486c-1.1477661 2.7962952 -2.359375 4.1944427 -3.6347046 4.1944427c-1.4376831 0 -2.1564941 -1.5211945 -2.1564941 -4.563553c0 -1.9685974 0.12176514 -3.8365173 0.36523438 -5.6037903l8.278137 -75.39944l-19.94757 0l0.1315918 3.1146317c-0.054626465 -0.0771637 -0.11010742 -0.15345001 -0.16638184 -0.22885132c-1.9361572 -2.61734 -4.596985 -3.9260101 -7.982483 -3.9260101c-6.376709 0 -11.814301 4.205635 -16.312805 12.616913c-4.498474 8.41127 -7.85495 18.489136 -10.0694275 30.233597c-1.9331055 10.306335 -3.018036 20.199219 -3.2547302 29.678665l0 0c-2.4855347 4.9240723 -4.660248 8.554092 -6.52417 10.89006c-2.469513 3.0871124 -5.4086 4.6306763 -8.817261 4.6306763c-2.086914 0 -3.5245972 -0.77178955 -4.3129883 -2.3153381c-0.77679443 -1.5659332 -1.1651917 -5.134018 -1.1651917 -10.704239c0 -1.275116 0.0289917 -2.6844482 0.08694458 -4.228012c3.2927246 -0.42503357 6.9796143 -2.7515564 11.06073 -6.9795685c4.081085 -4.227997 7.37381 -9.898895 9.878113 -17.01268c2.5158997 -7.1138 3.7738647 -14.95462 3.7738647 -23.522476c0 -16.061958 -4.660797 -24.092926 -13.982422 -24.092926z" fill-rule="evenodd"/><path stroke="#ffffff" stroke-width="2.0" stroke-linejoin="round" stroke-linecap="butt" d="m434.07263 323.68088c-2.9796753 0 -5.5013733 2.0469055 -7.5651245 6.140686c-2.0637512 4.071411 -3.0956116 8.959351 -3.0956116 14.663788c0 5.726837 1.0318604 10.592407 3.0956116 14.59668c2.075348 3.981964 4.597046 5.9729004 7.5651245 5.9729004c2.956482 0 5.4897766 -1.9909363 7.599884 -5.9729004c2.121704 -3.9819336 3.1825562 -8.847504 3.1825562 -14.59668c0 -5.726837 -1.0550537 -10.625946 -3.1651611 -14.697357c-2.1101074 -4.0713806 -4.649231 -6.1071167 -7.617279 -6.1071167zm-124.87952 47.042023c0 0 0 0 0 0l0 0l0 0zm90.872925 4.543091l0 0l0 0c0 0 0 0 0 0zm19.71817 9.713226c0 0 0 0 0 0l0 0l0 0zm-190.73645 -41.78763l-4.6243744 41.896057c-2.0637512 -1.6553955 -4.7767487 -3.1206665 -8.139023 -4.3957825c2.2144623 -8.61264 4.91008 -17.035095 8.086853 -25.267395c3.038208 -7.8732605 4.597061 -11.950897 4.676544 -12.23288zm75.31601 44.74826c0.77679443 0 1.3275146 0.40267944 1.6521606 1.2080078c0.33621216 0.782959 0.5043335 1.3422241 0.5043335 1.6777954l-5.4086304 48.353607c-0.5217285 4.0266724 -1.4434509 7.158539 -2.7651672 9.395569c-1.3217163 2.2370605 -2.521698 3.3555603 -3.599945 3.3555603c-0.8927307 0 -1.640564 -0.5480652 -2.2434387 -1.6442261c-0.5913086 -1.1184998 -0.8869629 -4.4964294 -0.8869629 -10.133789c0 -6.509796 0.61450195 -14.0486145 1.8434753 -22.616455c1.2289429 -8.567871 2.8347168 -15.636932 4.817322 -21.207153c1.9825745 -5.592621 4.0115356 -8.388916 6.086853 -8.388916zm53.425446 -1.0402222c0.6029053 0 1.0260925 0.38031006 1.2695618 1.1408997c0.25506592 0.7382202 0.41159058 1.9909668 0.46954346 3.7582397c-2.1448975 1.744873 -3.2173462 6.3867188 -3.2173462 13.925568c0 7.2256165 0.8695679 11.21875 2.608673 11.97934c-0.35943604 5.0333557 -1.1420288 10.625946 -2.3478088 16.777802c-1.20578 6.1295166 -2.5101013 10.748993 -3.9129639 13.858459c-1.3912964 3.0871277 -2.6028748 4.6306763 -3.634735 4.6306763c-1.2753601 0 -2.1333008 -0.6375427 -2.573883 -1.9126587c-0.44058228 -1.275116 -0.66085815 -4.776062 -0.66085815 -10.502899c0 -6.5992737 0.6492615 -14.305908 1.9477844 -23.119812c1.2985535 -8.836304 2.9101257 -16.129028 4.834717 -21.878265c1.9362183 -5.7715454 3.6753235 -8.657349 5.2173157 -8.657349zm264.5532 22.313995c0.028198242 3.7392883 0.18029785 8.62738 0.4562378 14.664276c0.4173584 7.292755 0.6260376 12.918915 0.6260376 16.878479c0 5.4360046 -0.66082764 9.272522 -1.982544 11.5095825c-1.3101196 2.23703 -3.0028687 3.3555603 -5.078186 3.3555603c-1.5999756 0 -2.718811 -0.7046814 -3.3565063 -2.1140137c-0.1459961 -0.33392334 -0.30932617 -0.68182373 -0.49005127 -1.0437012l0 0c0.06921387 0.002319336 0.13983154 0.003479004 0.21179199 0.003479004c2.052185 0 3.7159424 -1.4876099 4.991272 -4.4628906c1.2869263 -2.9752808 1.9303589 -6.2861023 1.9303589 -9.932465c0 -4.8767395 -0.56225586 -7.885559 -1.6868896 -9.026459c2.088684 -7.775299 3.5482178 -14.385925 4.378479 -19.831848zm-381.78012 -93.14987c-6.481079 0 -13.124466 5.928192 -19.93016 17.784485c-6.8056946 11.833954 -12.938934 26.095093 -18.399734 42.783386c-1.368103 -0.24606323 -2.8347473 -0.3691101 -4.399933 -0.3691101c-4.324585 0 -8.307144 1.2415466 -11.947662 3.7246704c-3.6289368 2.4607239 -6.5506287 5.950531 -8.765091 10.46936c-2.2144623 4.4964294 -3.3216858 9.652832 -3.3216858 15.469116c0 5.1452026 0.8347626 9.138306 2.504303 11.97937c1.6811371 2.841034 3.797058 4.2615356 6.3477325 4.2615356c2.1564941 0 4.0637207 -1.0513916 5.7216644 -3.1542053c1.6579437 -2.1028442 2.4869232 -5.167572 2.4869232 -9.194244c0 -2.1028137 -0.28985596 -4.4069824 -0.8695526 -6.912445c-0.12220764 -0.52822876 -0.25291443 -0.9460449 -0.39213562 -1.25354l0 0c0.92803955 -0.61602783 1.8761292 -1.3055115 2.8442688 -2.0684814c1.6463623 -1.3198242 2.7477875 -2.0133362 3.304306 -2.0804443l0 0c-3.3854675 11.274689 -6.556427 24.864716 -9.512909 40.77005c-2.9448853 15.882996 -4.417328 28.667664 -4.417328 38.354065c0 7.695404 0.9043274 13.500519 2.7129974 17.415344c1.80867 3.914856 3.8666077 6.3420105 6.173828 7.2815857c2.3188019 0.9619446 6.394104 1.4428711 12.225922 1.4428711c-2.5622864 -6.308441 -3.8434296 -11.58783 -3.8434296 -15.838226c0 -10.178528 1.2753448 -23.94751 3.8260345 -41.306946c2.562271 -17.359436 5.628891 -33.477295 9.199875 -48.353638c1.3448944 0.22372437 3.055008 0.85009766 5.130356 1.8791199c2.0869293 1.0290527 3.8492126 2.1811218 5.2868805 3.4562378l-8.434662 76.67453l19.94754 0l17.530197 -158.51666c-3.6057434 -3.131836 -7.2752533 -4.6977844 -11.008545 -4.6977844zm54.822784 175.81744c-0.5763855 4.981964 -1.2646179 8.577057 -2.0646057 10.785278c-0.82318115 2.3265076 -1.4550781 3.4897766 -1.8956299 3.4897766c-0.4753723 0 -0.8289795 -0.24606323 -1.060852 -0.7382202c-0.23190308 -0.49215698 -0.34783936 -1.0849915 -0.34783936 -1.7784424c0 -4.53244 1.7896423 -8.451904 5.368927 -11.758392zm-18.854767 -166.28763l-20.504059 5.335327l-11.756348 106.2706c-0.6029053 5.7939453 -0.90434265 10.558838 -0.90434265 14.294678c0 9.395569 1.2637634 16.587646 3.7912598 21.576263c2.527481 4.966217 5.814392 7.449341 9.860733 7.449341c4.510071 0 9.02594 -2.8969727 13.547638 -8.690918c1.1760864 -1.5031433 2.3162537 -3.4700317 3.4205627 -5.900696l0 0c0.5894165 1.9666138 1.2778625 3.7321777 2.0653992 5.296692c3.1419678 6.1966248 7.054962 9.294922 11.738953 9.294922c0.1927185 0 0.38278198 -0.0021362305 0.5701599 -0.006439209l0 0c-1.0852051 1.2809753 -2.1390076 2.658905 -3.161438 4.1337585c-3.675293 5.324188 -5.51297 12.616913 -5.51297 21.878265c0 7.87442 1.385498 13.891998 4.1564636 18.052887c2.770996 4.1609497 6.1158752 6.241394 10.034637 6.241394c4.904297 0 9.315826 -2.8186646 13.234619 -8.456055c3.930359 -5.614929 6.6549683 -15.614502 8.173798 -29.998688l1.3391113 -12.247803c3.58255 -1.7896118 7.1535034 -5.7827454 10.712891 -11.97934c0.3659973 -0.63739014 0.7270508 -1.329773 1.0831604 -2.0771484l0 0c0.6559143 1.8881226 1.4195251 3.5760193 2.290802 5.0635986c3.5245972 5.99527 8.202789 8.992889 14.034607 8.992889c4.82312 0 9.2578125 -2.7850952 13.304138 -8.355347c4.0579224 -5.570221 7.3274536 -13.310394 9.808563 -23.220459c2.4927368 -9.910095 3.9883423 -20.278778 4.486908 -31.106049c1.2475281 -0.3840332 2.5438843 -0.9641113 3.888977 -1.7402649l0 0l-6.9808655 63.58322l19.930145 0l8.782501 -80.3992c1.1593933 -2.058075 2.1333008 -3.5345154 2.921692 -4.429352c0.6828003 -0.7637329 1.4711914 -1.2015381 2.3651428 -1.3134155l0 0c-0.0055236816 0.4524536 0.035064697 1.0244751 0.12176514 1.716095c0.33624268 3.3108215 0.92755127 6.1183167 1.7738953 8.422455c0.8463745 2.2817688 2.4405518 3.4226685 4.7825623 3.4226685c3.1071777 0 5.536133 -1.9573975 7.2868347 -5.872223c0.4463501 -0.9981384 0.8357849 -2.0332947 1.168335 -3.1055298l0 0l-4.331024 39.479797c-0.60287476 5.7939453 -0.9043274 10.558838 -0.9043274 14.294678c0 9.395569 1.2637329 16.587646 3.7912292 21.576263c2.5275269 4.966217 5.8144226 7.449341 9.860748 7.449341c4.510071 0 9.02594 -2.8969727 13.547638 -8.690918c1.0001526 -1.2782898 1.9743347 -2.8919373 2.9225464 -4.840973l0 0c0.576355 2.300171 1.309082 4.3276978 2.1981812 6.08255c2.5274963 4.966217 5.814392 7.449341 9.860718 7.449341c3.908722 0 7.8217773 -2.1759033 11.739227 -6.5277405l0 0l-0.58377075 5.2861633l19.930145 0l7.617279 -69.42651c0.7652283 -4.988617 1.7043457 -8.847504 2.8173523 -11.576691c1.1130371 -2.7515564 2.2318726 -4.12735 3.3564758 -4.12735c1.0782471 0 1.6173706 2.069275 1.6173706 6.207794c0 2.5949402 -0.24346924 6.1518555 -0.7304077 10.670685c-0.4753723 4.5188293 -0.9913025 9.138336 -1.547821 13.858459c-0.13912964 0.9619446 -0.41159058 3.1877747 -0.8173828 6.6775513c-0.39419556 3.4898071 -0.77679443 7.1361694 -1.1477966 10.939148c-0.3710022 3.802948 -0.55651855 7.281555 -0.55651855 10.435791c0 7.673065 1.2173767 14.194 3.6521301 19.562897c2.4347534 5.346527 6.1622314 8.019806 11.182434 8.019806c3.0883179 0 6.0735474 -1.5357971 8.955872 -4.607422l0 0l-0.36956787 3.3658447l19.930176 0l7.6172485 -69.42651c0.76519775 -5.1228333 1.7159424 -9.060028 2.8521118 -11.811584c1.1478271 -2.7515564 2.3652344 -4.12735 3.6521606 -4.12735c0.64923096 0 0.97387695 1.5995178 0.97387695 4.798462c0 1.4317017 -0.08691406 2.8186646 -0.26086426 4.1608887l-8.382507 76.4061l19.94757 0l7.6173096 -69.42651c0.7536011 -4.988617 1.6868896 -8.847504 2.7999268 -11.576691c1.1130371 -2.7515564 2.237671 -4.12735 3.3739014 -4.12735c1.0782471 0 1.6173096 2.069275 1.6173096 6.207794c0 2.5949402 -0.24346924 6.1518555 -0.7304077 10.670685c-0.4753418 4.5188293 -0.991272 9.138336 -1.5477905 13.858459c-0.13909912 0.9619446 -0.4116211 3.1877747 -0.8173828 6.6775513c-0.39422607 3.4898071 -0.77679443 7.1361694 -1.1478271 10.939148c-0.37097168 3.802948 -0.55651855 7.281555 -0.55651855 10.435791c0 7.673065 1.2174072 14.194 3.6521606 19.562897c2.4347534 5.346527 6.1622314 8.019806 11.182434 8.019806c4.208618 0 8.225952 -2.852234 12.052002 -8.556671c0.4769287 -0.71173096 0.9506836 -1.5315857 1.4213867 -2.4595337l0 0c1.1644897 2.5809937 2.6053467 4.7989807 4.322632 6.653961c2.7130127 2.9081726 5.965149 4.3622437 9.756409 4.3622437c3.6173706 0 7.2056885 -1.2862854 10.765076 -3.8588867c3.5593872 -2.5726318 6.585388 -6.8789062 9.078125 -12.918915c2.5043335 -6.0624084 3.7564697 -13.791351 3.7564697 -23.18692c0 -3.825348 -0.1796875 -9.921295 -0.53912354 -18.287811c-0.8463745 -20.424194 -1.4840698 -40.971375 -1.9130249 -61.641632l-19.634521 5.1004333c-2.121704 13.041962 -4.20282 24.417328 -6.243347 34.12607c-2.0289917 9.686371 -4.3013916 18.869446 -6.817322 27.549133c-1.5187988 1.4988403 -2.9448853 4.272766 -4.2781982 8.321808c-1.2838745 3.8989563 -1.949646 8.399475 -1.9971924 13.501526l0 0c-0.9246826 1.803894 -2.034546 2.7058105 -3.3294678 2.7058105c-0.8695679 0 -1.4318237 -0.29083252 -1.6869507 -0.8724365c-0.24346924 -0.6040039 -0.36517334 -1.767273 -0.36517334 -3.4897766c0 -2.035736 0.22027588 -4.988617 0.66082764 -8.858673c0.45220947 -3.8700867 0.95654297 -7.9191284 1.5130615 -12.147156c0.9390869 -7.0914 1.6637573 -13.153778 2.1738892 -18.187134c0.5217285 -5.055725 0.7825928 -9.71994 0.7825928 -13.992676c0 -9.104736 -1.2927246 -15.983643 -3.8782349 -20.636688c-2.5738525 -4.653076 -5.9767456 -6.9795837 -10.208557 -6.9795837c-6.7940674 0 -11.338928 3.4338684 -13.6345825 10.301575c-0.62609863 -7.001953 -4.6955566 -10.502899 -12.208496 -10.502899c-5.727478 0 -9.188293 1.9797974 -10.382507 5.939331l1.2695923 -4.899109l-19.94757 0l-7.5838013 69.07507l0 0c-1.2875977 5.932007 -2.3579712 9.885681 -3.2111206 11.861053c-0.98553467 2.2593994 -2.1970825 3.3890991 -3.6347656 3.3890991c-0.8695679 0 -1.4318848 -0.29083252 -1.6869507 -0.8724365c-0.24346924 -0.6040039 -0.36517334 -1.767273 -0.36517334 -3.4897766c0 -2.035736 0.22027588 -4.988617 0.66082764 -8.858673c0.45220947 -3.8700867 0.95654297 -7.9191284 1.5130615 -12.147156c0.9390869 -7.0914 1.6636963 -13.153778 2.1738892 -18.187134c0.5217285 -5.055725 0.7825928 -9.71994 0.7825928 -13.992676c0 -9.104736 -1.298523 -15.983643 -3.89563 -20.636688c-2.5854492 -4.653076 -5.9825134 -6.9795837 -10.191132 -6.9795837c-5.437622 0 -8.353516 0.5257263 -8.747711 1.5771179l4.852112 -42.749817l-20.504059 5.335327l-11.569244 104.764404l0 0c-0.9185791 5.718231 -2.0212097 9.788391 -3.3078918 12.210419c-1.4144897 2.6844482 -2.8579407 4.0266724 -4.3303833 4.0266724c-0.9970703 0 -1.6057739 -0.19015503 -1.8260498 -0.5704346c-0.20870972 -0.38027954 -0.31304932 -1.2974548 -0.31304932 -2.7515564c0 -1.9909668 0.12173462 -3.8588867 0.36520386 -5.6037903l6.4694824 -58.554535l6.4346924 0l1.7391052 -16.84491l-6.3651123 0l3.7042847 -33.35428l-20.486664 5.3353577l-3.1477966 28.01892l-3.565155 0l-1.7391052 16.84491l3.4956055 0l-5.720001 51.635498l0 0c-0.9057312 5.512451 -1.9870911 9.451813 -3.2441711 11.818146c-1.4144592 2.6844482 -2.8579102 4.0266724 -4.330353 4.0266724c-0.99710083 0 -1.6057739 -0.19015503 -1.8260803 -0.5704346c-0.2086792 -0.38027954 -0.3130188 -1.2974548 -0.3130188 -2.7515564c0 -1.9909668 0.12173462 -3.8700867 0.36520386 -5.6373596l8.278137 -75.365875l-19.94754 0l-1.9059753 17.374054l0 0c-0.2220459 -4.3286133 -1.0599976 -8.151367 -2.5138245 -11.468262c-1.7043457 -3.9371948 -4.0463257 -5.905792 -7.026001 -5.905792c-2.6898193 0 -5.130371 1.2415466 -7.3216248 3.7246704c-1.5267639 1.7236633 -2.479004 3.0357056 -2.85672 3.9361572l1.395874 -7.6608276l-19.94754 0l-3.160492 28.786224l0 0c-2.0766602 1.5154114 -3.933075 2.4058838 -5.5692444 2.6714478l0 0c-0.54992676 -22.202148 -5.8382263 -33.303223 -15.86496 -33.303223c-7.2926636 0 -13.321564 4.48526 -18.0867 13.45578c-4.7535706 8.948181 -8.179596 19.406372 -10.278137 31.374512c-2.086914 11.94577 -3.130371 22.82898 -3.130371 32.649597c0 0.45791626 0.0023498535 0.9114685 0.007019043 1.3606873l0 0c-1.0176086 4.446686 -2.063446 7.8184814 -3.1375427 10.115326c-1.8202515 3.892456 -3.0260315 6.028839 -3.61734 6.4091187l10.330292 -93.51947l-19.94754 0l0.13375854 3.1177368c-0.05532837 -0.07821655 -0.11151123 -0.1555481 -0.16854858 -0.23196411c-1.9361877 -2.6173096 -4.5970154 -3.9259949 -7.982483 -3.9259949c-6.376709 0 -11.814331 4.2056274 -16.312805 12.616913c-4.4985046 8.411285 -7.8549805 18.489136 -10.0694275 30.233582c-2.2028809 11.744476 -3.3042908 22.952057 -3.3042908 33.62271c0 0.13687134 1.8310547E-4 0.27331543 5.493164E-4 0.4093933l0 0c-0.51937866 1.8428345 -1.0786743 3.328247 -1.677887 4.4561768c-1.4144592 2.6844482 -2.8579407 4.0266724 -4.3303833 4.0266724c-0.9970703 0 -1.6057739 -0.19015503 -1.8260498 -0.5704346c-0.2086792 -0.38027954 -0.31304932 -1.2974548 -0.31304932 -2.7515564c0 -1.9909668 0.12176514 -3.8588867 0.36523438 -5.6037903l12.956329 -117.41104z" fill-rule="evenodd"/><path fill="#000000" fill-opacity="0.0" d="m-4.7979 350.7533l11.055119 0l0 223.1181l-11.055119 0z" fill-rule="evenodd"/></g></svg>