<svg version="1.1" viewBox="0.0 0.0 800.0 600.0" fill="none" stroke="none" stroke-linecap="square" stroke-miterlimit="10" xmlns:xlink="http://www.w3.org/1999/xlink" xmlns="http://www.w3.org/2000/svg"><clipPath id="p.0"><path d="m0 0l800.0 0l0 600.0l-800.0 0l0 -600.0z" clip-rule="nonzero"/></clipPath><g clip-path="url(#p.0)"><path fill="#000000" fill-opacity="0.0" d="m0 0l800.0 0l0 600.0l-800.0 0z" fill-rule="evenodd"/><defs><radialGradient id="p.1" gradientUnits="userSpaceOnUse" gradientTransform="matrix(19.157860581162083 0.0 0.0 19.157860581162083 0.0 0.0)" spreadMethod="pad" cx="21.42290812080662" cy="14.687687239205163" fx="21.42290812080662" fy="14.687687239205163" r="19.157859802246094"><stop offset="0.0" stop-color="#d4e5f5"/><stop offset="0.5" stop-color="#cc4125"/><stop offset="1.0" stop-color="#70a4d5"/></radialGradient></defs><path fill="url(#p.1)" d="m195.63734 216.97807c-1.7416382 0 -3.2155914 1.3214874 -4.4218597 3.9644775c-1.206253 2.62854 -1.8094025 5.7842407 -1.8094025 9.467102c0 3.6972961 0.6031494 6.8385468 1.8094025 9.423767c1.2130585 2.5707703 2.6870117 3.8561554 4.4218597 3.8561554c1.7280731 0 3.2088013 -1.2853851 4.4421844 -3.8561554c1.2401428 -2.5707855 1.8602142 -5.712036 1.8602142 -9.423767c0 -3.6972961 -0.6166687 -6.860214 -1.8500519 -9.48877c-1.2333832 -2.62854 -2.7174988 -3.94281 -4.452347 -3.94281zm-78.802414 30.368805c0 0 0 0 0 0l0 0l0 0zm-51.261887 -19.688538l-5.7837067 33.34169l0 0c-0.066589355 -0.60150146 -0.15140533 -1.1217651 -0.2544098 -1.560852c-0.29141235 -1.2420349 -0.43709946 -3.3362122 -0.43709946 -6.282501c0 -6.946869 0.77934265 -12.723892 2.3379898 -17.33107c1.5654373 -4.6071777 2.9445229 -7.329605 4.137226 -8.167267zm-5.7837067 33.34169c0 0 0 0 0 0l0 0l0 0zm190.12158 -4.2688293c0.17619324 0 0.2642975 0.8954468 0.2642975 2.6863403c0 3.1629028 -0.3761139 6.217499 -1.1283417 9.163788c-0.7522278 2.9318542 -1.7348633 5.3220825 -2.9479065 7.170746c-1.2062683 1.834198 -1.914444 2.7585144 -2.1245117 2.7729492c0.44726562 -4.448303 1.3113098 -9.192688 2.5921173 -14.233124c1.2875977 -5.0404663 2.4023743 -7.5606995 3.344345 -7.5606995zm-135.89749 1.7331238c0.45404053 0 0.7759323 0.25994873 0.9656906 0.7799072c0.1965332 0.50546265 0.29479218 0.91708374 0.29479218 1.2348328l-2.9682312 29.766113c-0.32528687 3.0762634 -0.887764 5.437622 -1.6874161 7.084076c-0.7996597 1.632019 -1.5417175 2.447998 -2.226181 2.447998c-0.52181244 0 -0.9589157 -0.35385132 -1.3113022 -1.0615234c-0.3456192 -0.72213745 -0.518425 -2.902954 -0.518425 -6.5424805c0 -4.2027893 0.35917664 -9.069916 1.077507 -14.60141c0.7183304 -5.5315247 1.6569214 -10.095367 2.8157578 -13.691559c1.1588287 -3.6106567 2.344757 -5.4159546 3.557808 -5.4159546zm-42.15831 -46.403946c-3.3003082 0 -6.590454 1.8558655 -9.870388 5.5675964c-3.2799797 3.6972961 -5.983917 8.528336 -8.111813 14.493118c-2.1211472 5.9503326 -3.1817017 11.98732 -3.1817017 18.110962c0 9.434143 2.796852 14.383179 8.390522 14.847076l0 0l-9.081753 52.354156l7.766197 0l9.524773 -62.803467l-2.6124496 62.803467l10.785248 0l10.876747 -62.543503l-5.4993668 62.543503l11.628967 0l6.9326477 -103.50983l-11.364662 0l-12.879288 72.9205l2.785263 -72.07561c-2.3718796 -1.8053284 -4.4015274 -2.7079773 -6.0889435 -2.7079773zm99.39881 6.152527l-11.984741 3.4445496l-6.777542 67.789444l0 0c-1.8371582 4.2344055 -3.411255 7.259033 -4.722275 9.073853c-1.4434662 1.9930725 -3.161377 2.989624 -5.1537476 2.989624c-1.2198181 0 -2.060135 -0.49829102 -2.5209656 -1.494812c-0.45404053 -1.0109863 -0.6810608 -3.3145752 -0.6810608 -6.9107666c0 -4.7227173 0.37950134 -10.066467 1.1384888 -16.03125c0.76579285 -5.9792175 1.6942139 -10.860779 2.785263 -14.644745c1.0910645 -3.7984009 2.016098 -5.6976013 2.7751007 -5.6976013c0.101638794 0 0.1999054 0.16610718 0.29478455 0.49829102c0.10165405 0.3177185 0.15248108 1.0470886 0.15248108 2.1880493c0 1.9786072 -0.34222412 4.968231 -1.0266876 8.968811c1.545105 2.1663818 2.7988129 3.2495728 3.7611084 3.2495728c1.3824768 0 2.4972534 -1.1409607 3.344345 -3.422882c0.84710693 -2.2963562 1.2706604 -5.31485 1.2706604 -9.055481c0 -4.303879 -0.65734863 -7.878418 -1.9720459 -10.723602c-1.3079224 -2.8596191 -3.395172 -4.289444 -6.2617493 -4.289444c-4.235489 0 -7.711975 2.8957367 -10.429474 8.68721c-2.7174988 5.7914734 -4.675995 12.5433655 -5.875473 20.255676c-1.1994934 7.7123413 -1.7992401 14.781982 -1.7992401 21.208893c0 0.1937561 5.722046E-4 0.38632202 0.001701355 0.57769775l0 0c-0.27126312 1.24646 -0.5454254 2.2453918 -0.822464 2.9968567c-0.67089844 1.8053284 -1.3790665 2.7079773 -2.1245193 2.7079773c-0.8403168 0 -1.2604828 -0.9821167 -1.2604828 -2.946289c0 -1.270935 0.07115173 -2.4768982 0.21347046 -3.617859l4.838623 -48.67865l-11.659462 0l0.07689667 2.010849c-0.031929016 -0.049819946 -0.064331055 -0.09907532 -0.097229004 -0.14775085c-1.1317291 -1.6897888 -2.6869965 -2.534668 -4.6658173 -2.534668c-3.7272186 0 -6.905525 2.7151947 -9.534935 8.145599c-2.629387 5.4303894 -4.591263 11.936768 -5.8856354 19.519104c-1.2875824 7.582367 -1.9313889 14.818085 -1.9313889 21.707184c0 8.116699 0.9148712 14.182587 2.7445984 18.197632c1.8365021 4.00058 4.1236725 6.000885 6.861496 6.000885c2.317665 0 4.3032684 -1.2637329 5.9567947 -3.7911682c1.6013336 -2.4476929 2.465416 -4.0826416 2.5922394 -4.9048767l0 0c-0.07028198 0.7586975 0.5260315 2.3792114 1.7889557 4.8615417c1.3079147 2.5563354 3.0055008 3.8345032 5.0927505 3.8345032c2.5683975 0 5.0995255 -1.877533 7.5933914 -5.632599c0.632843 -0.95288086 1.2506332 -2.1908264 1.8533554 -3.7138062l0 0c0.37419128 1.2792664 0.81269836 2.4233398 1.315567 3.4321594c1.9720306 3.94281 4.672577 5.9142456 8.101639 5.9142456c4.2954407 0 8.306732 -3.471283 12.033905 -10.413849l0 0l-0.96102905 9.612274l11.649292 0l4.452347 -44.82248c0.44728088 -3.2207031 0.99620056 -5.712036 1.646759 -7.4740295c0.65057373 -1.7764282 1.3045502 -2.6646423 1.9618835 -2.6646423c0.630249 0 0.9453583 1.3359375 0.9453583 4.0078125c0 1.6753235 -0.14230347 3.9716797 -0.42692566 6.889099c-0.27786255 2.917389 -0.579422 5.8997803 -0.90470886 8.947144c-0.08131409 0.6210327 -0.24057007 2.058075 -0.47776794 4.3111267c-0.23039246 2.2530212 -0.45402527 4.6071777 -0.67089844 7.0624084c-0.21685791 2.4552307 -0.32528687 4.70105 -0.32528687 6.7374573c0 4.9537964 0.7115631 9.163788 2.1346893 12.630005c1.4231262 3.4517822 3.6018677 5.1776733 6.536209 5.1776733c2.4599762 0 4.808136 -1.8414307 7.0444794 -5.524292c0.4182129 -0.6893616 0.83244324 -1.5358582 1.2426605 -2.5395203l0 0c0.3088684 1.2108765 0.683197 2.2956848 1.1229553 3.254425c1.477356 3.2062378 3.3985748 4.809387 5.7636566 4.809387c2.2839355 0 4.570404 -1.4039001 6.8593903 -4.2116394l0 0l-0.33895874 3.4100647l11.649292 0l4.452347 -44.82248c0.44726562 -3.2207031 0.9961853 -5.712036 1.646759 -7.4740295c0.65057373 -1.7764282 1.3045349 -2.6646423 1.9618835 -2.6646423c0.63023376 0 0.9453583 1.3359375 0.9453583 4.0078125c0 1.6753235 -0.14230347 3.9716797 -0.42694092 6.889099c-0.2778473 2.917389 -0.57940674 5.8997803 -0.9046936 8.947144c-0.081329346 0.6210327 -0.24057007 2.058075 -0.47776794 4.3111267c-0.23040771 2.2530212 -0.45404053 4.6071777 -0.67089844 7.0624084c-0.21685791 2.4552307 -0.32528687 4.70105 -0.32528687 6.7374573c0 4.9537964 0.7115631 9.163788 2.1346893 12.630005c1.4231262 3.4517822 3.6018677 5.1776733 6.536209 5.1776733c2.4599762 0 4.808136 -1.8414307 7.044464 -5.524292c0.524292 -0.86416626 1.0422668 -1.9753113 1.5539856 -3.333435l0 0c0.34036255 1.0837097 0.7294922 2.0648804 1.1674347 2.9434814c1.9720306 3.94281 4.64888 5.9142456 8.030487 5.9142456c6.803894 0 11.05632 -9.943726 12.757294 -29.831116l0 0c-2.8665771 5.3870544 -4.8928375 8.67276 -6.078781 9.857056c-1.1859283 1.1842651 -2.2668304 1.7764282 -3.242691 1.7764282c-1.7145233 0 -2.5717773 -2.758545 -2.5717773 -8.275604c0 -0.6210022 0.0067749023 -1.0831909 0.020324707 -1.3864746c1.944931 -0.27441406 4.106735 -1.7764282 6.485382 -4.506073c2.385437 -2.7296448 4.313431 -6.383606 5.7839813 -10.961914c1.4705658 -4.5927124 2.2058563 -9.662079 2.2058563 -15.208008c0 -10.369766 -2.7242737 -15.554642 -8.172806 -15.554642c-4.2761536 0 -7.783142 2.8957367 -10.520966 8.68721c-2.7378235 5.7914734 -4.6963043 12.550568 -5.875473 20.277344c-1.1791534 7.7123413 -1.7687378 14.77475 -1.7687378 21.187225c0 0.0036010742 0 0.0072021484 0 0.010803223l0 0c-0.35290527 1.4836731 -0.6670685 2.5777283 -0.9425049 3.2821045c-0.5760193 1.4587097 -1.284195 2.1880493 -2.124527 2.1880493c-0.508255 0 -0.8369293 -0.18774414 -0.98602295 -0.56326294c-0.14230347 -0.3899231 -0.21347046 -1.1409607 -0.21347046 -2.2530212c0 -1.31427 0.12875366 -3.2207031 0.38627625 -5.719269c0.2642975 -2.4985657 0.5590973 -5.112671 0.88438416 -7.8423157c0.5489197 -4.5782776 0.9724579 -8.492218 1.2706451 -11.741791c0.3049469 -3.2640076 0.45742798 -6.275299 0.45742798 -9.033813c0 -5.878113 -0.7589874 -10.319214 -2.2769928 -13.323257c-1.5112152 -3.0040588 -3.4968262 -4.5060883 -5.9568024 -4.5060883c-3.178299 0 -5.0961304 1.234848 -5.7534943 3.7045135l0.7420654 -3.162918l-11.65947 0l-4.4030457 44.296387l0 0c-0.52679443 3.514557 -1.1546631 6.0296326 -1.8835754 7.5451965c-0.82676697 1.7330933 -1.6704865 2.59964 -2.531128 2.59964c-0.58280945 0 -0.93859863 -0.1227417 -1.067337 -0.36828613c-0.12199402 -0.24551392 -0.1829834 -0.837677 -0.1829834 -1.7764282c0 -1.2854004 0.07115173 -2.4985657 0.21347046 -3.6395264l4.838623 -48.656982l-11.659454 0l-4.4255676 44.558777l0 0c-0.7558441 3.8502197 -1.3838959 6.415039 -1.8841553 7.694397c-0.5760193 1.4587097 -1.2841797 2.1880493 -2.1245117 2.1880493c-0.50827026 0 -0.8369446 -0.18774414 -0.98602295 -0.56326294c-0.14231873 -0.3899231 -0.21347046 -1.1409607 -0.21347046 -2.2530212c0 -1.31427 0.12875366 -3.2207031 0.38627625 -5.719269c0.2642975 -2.4985657 0.55908203 -5.112671 0.8843689 -7.8423157c0.5489197 -4.5782776 0.9724579 -8.492218 1.2706451 -11.741791c0.30496216 -3.2640076 0.45742798 -6.275299 0.45742798 -9.033813c0 -5.878113 -0.7589874 -10.319214 -2.2769928 -13.323257c-1.5112152 -3.0040588 -3.4968262 -4.5060883 -5.9568024 -4.5060883c-3.178299 0 -4.88266 0.33940125 -5.113083 1.0182037l2.83609 -27.599731z" fill-rule="evenodd"/><defs><radialGradient id="p.2" gradientUnits="userSpaceOnUse" gradientTransform="matrix(19.157860581162083 0.0 0.0 19.157860581162083 0.0 0.0)" spreadMethod="pad" cx="21.42290812080662" cy="14.687687239205163" fx="21.42290812080662" fy="14.687687239205163" r="19.157859802246094"><stop offset="0.0" stop-color="#d4e5f5"/><stop offset="0.5" stop-color="#cc4125"/><stop offset="1.0" stop-color="#70a4d5"/></radialGradient></defs><path fill="url(#p.2)" d="m415.79062 216.97807c-1.7416382 0 -3.2156067 1.3214874 -4.421875 3.9644775c-1.2062683 2.62854 -1.8093872 5.7842407 -1.8093872 9.467102c0 3.6972961 0.6031189 6.8385468 1.8093872 9.423767c1.2130432 2.5707703 2.6870117 3.8561554 4.421875 3.8561554c1.7280579 0 3.2088013 -1.2853851 4.442169 -3.8561554c1.2401428 -2.5707855 1.8602295 -5.712036 1.8602295 -9.423767c0 -3.6972961 -0.6166992 -6.860214 -1.8500671 -9.48877c-1.2333679 -2.62854 -2.7174988 -3.94281 -4.4523315 -3.94281zm57.740967 30.298996c0 0 0 0 0 0l0 0l0 0zm-136.04373 0.06980896c0 0 0 0 0 0l0 0l0 0zm26.886017 2.9350739l0 0l0 0c0 0 0 0 0 0zm11.525085 6.2647705c0 0 0 0 0 0l0 0l0 0zm-65.84549 0.18447876c0.17617798 0 0.26428223 0.8954468 0.26428223 2.6863403c0 3.1629028 -0.37609863 6.1958313 -1.1283264 9.098785c-0.7522278 2.8885193 -1.7348633 5.2571106 -2.9479065 7.1057434c-1.2130432 1.8486633 -1.9110718 2.7874146 -2.0940247 2.8163147c0.3930359 -4.506073 1.2299805 -9.250458 2.5108032 -14.233154c1.2807922 -4.982666 2.4125366 -7.4740295 3.395172 -7.4740295zm24.612885 1.7331238c0.45404053 0 0.77593994 0.25994873 0.96569824 0.7799072c0.1965332 0.50546265 0.2947693 0.91708374 0.2947693 1.2348328l-2.9682312 29.766113c-0.32528687 3.0762634 -0.88775635 5.437622 -1.6874084 7.084076c-0.7996521 1.632019 -1.5417175 2.447998 -2.2261658 2.447998c-0.52182007 0 -0.95892334 -0.35385132 -1.3113098 -1.0615234c-0.34561157 -0.72213745 -0.5184326 -2.902954 -0.5184326 -6.5424805c0 -4.2027893 0.35916138 -9.069916 1.0775146 -14.60141c0.71832275 -5.5315247 1.6569214 -10.095367 2.8157654 -13.691559c1.1588135 -3.6106567 2.344757 -5.4159546 3.5578003 -5.4159546zm136.08905 0c0.67767334 0 1.087677 0.6354675 1.2299805 1.9064026l-3.120697 31.542572c-0.33883667 2.5707703 -0.8843689 4.5277405 -1.6365967 5.87088c-0.7522278 1.3287354 -1.4502258 1.9930725 -2.0940247 1.9930725c-0.52182007 0 -0.95892334 -0.35385132 -1.3113098 -1.0615234c-0.34561157 -0.72213745 -0.5184326 -2.902954 -0.5184326 -6.5424805c0 -4.2027893 0.35916138 -9.069916 1.0775146 -14.60141c0.71832275 -5.5315247 1.6569214 -10.095367 2.8157349 -13.691559c1.158844 -3.6106567 2.3447876 -5.4159546 3.5578308 -5.4159546zm-4.90979 63.561707l-0.2947998 3.097931c-0.33203125 3.1773376 -0.73187256 5.3365173 -1.1994629 6.477478c-0.46084595 1.1409607 -0.86743164 1.7114563 -1.2198486 1.7114563c-0.33883667 0 -0.6234436 -0.21664429 -0.8538513 -0.64993286c-0.23040771 -0.41882324 -0.34561157 -0.74380493 -0.34561157 -0.9748535c0 -2.4985657 0.49468994 -4.621643 1.4841003 -6.369171c0.9961853 -1.7331238 1.8059998 -2.8307495 2.4294739 -3.2929077zm-173.71921 -108.644165c-3.5984802 0 -7.193573 1.7475586 -10.785248 5.2426453c-3.5849304 3.495102 -6.5531616 8.138397 -8.904694 13.929855c-2.3515625 5.7770233 -3.5273132 11.850113 -3.5273132 18.219284c0 5.4592896 0.6878357 9.438232 2.063507 11.936768c1.3757019 2.4985657 3.7814636 3.7478638 7.217285 3.7478638c0 -2.440796 -0.14569092 -4.303894 -0.43710327 -5.589264c-0.29141235 -1.2998352 -0.43710327 -3.3795776 -0.43710327 -6.239197c0 -6.5424805 0.6878662 -12.037872 2.0635376 -16.48619c1.3756714 -4.448303 2.5717773 -7.112961 3.5883179 -7.9939575l0 0l-9.169006 90.92314c1.4909058 -0.3899536 2.5209656 -0.5849304 3.09021 -0.5849304c1.6196594 0 3.232544 0.70047 4.838623 2.10141c1.6061096 1.4009094 3.124115 3.148468 4.554016 5.2426453c1.4299011 2.108612 3.1715393 4.917694 5.224884 8.427216c2.8394775 4.7949524 5.228302 8.398376 7.1664734 10.810272c1.9381409 2.4263306 3.961029 3.6395264 6.0686035 3.6395264c2.175354 0 3.9271545 -2.1663818 5.2554016 -6.4991455c1.335022 -4.332794 2.2600403 -11.510742 2.7750854 -21.533875l0 0c-2.812378 2.4841309 -5.072418 3.7261963 -6.780182 3.7261963c-1.9110413 0 -3.7746582 -0.7799072 -5.590851 -2.3396912c-1.8161621 -1.5598145 -4.0525208 -3.8706055 -6.709015 -6.932434c-1.7755127 -2.0653076 -3.3036804 -3.7189636 -4.5844727 -4.961029c-1.2808228 -1.2420654 -2.1347046 -1.9786377 -2.5616455 -2.2097168l9.667084 -96.0358c-2.1075745 -0.36105347 -3.469696 -0.54159546 -4.0863953 -0.54159546zm17.428955 30.76265c-4.2761536 0 -7.783142 2.8957367 -10.520966 8.68721c-2.7378235 5.7914734 -4.6963196 12.550568 -5.875458 20.277344c-1.1791687 7.7123413 -1.7687378 14.77475 -1.7687378 21.187225c0 8.073395 0.9826355 14.081512 2.947876 18.024323c1.9720459 3.94281 4.6726074 5.9142456 8.101654 5.9142456c4.9088745 0 9.446686 -4.5335693 13.613373 -13.6006775l0 0c0.45742798 3.0503845 1.1455383 5.5836487 2.064331 7.5997925c1.8365173 4.00058 4.1236877 6.000885 6.861511 6.000885c2.3176575 0 4.303253 -1.2637329 5.956787 -3.7911682c1.6013489 -2.4476929 2.4654236 -4.0826416 2.5922241 -4.9048767l0 0c-0.07028198 0.7586975 0.526062 2.3792114 1.788971 4.8615417c1.3079224 2.5563354 3.0054932 3.8345032 5.092743 3.8345032c2.1091614 0 4.1931763 -1.2661438 6.252075 -3.7984009l0 0l-0.29788208 2.9968262l11.649292 0l5.1333923 -51.906555c0.67770386 -1.3287048 1.2469482 -2.2819214 1.7077637 -2.8596191c0.3991089 -0.49310303 0.8599243 -0.7757263 1.3824463 -0.8479614l0 0c-0.0032348633 0.29208374 0.020477295 0.66137695 0.07116699 1.1079102c0.1965332 2.1375122 0.5421448 3.9500427 1.0368652 5.437622c0.49468994 1.4731445 1.4265137 2.2097168 2.7954102 2.2097168c1.8161926 0 3.2359314 -1.2637329 4.2592163 -3.7911682c0.25982666 -0.64172363 0.4866333 -1.30719 0.68048096 -1.9963989l0 0l-5.233032 52.646454l11.649292 0l4.452362 -44.82248c0.44726562 -3.2207031 0.9961853 -5.712036 1.646759 -7.4740295c0.6505432 -1.7764282 1.3045044 -2.6646423 1.961853 -2.6646423c0.630249 0 0.94537354 1.3359375 0.94537354 4.0078125c0 1.6753235 -0.14230347 3.9716797 -0.42694092 6.889099c-0.27783203 2.917389 -0.57940674 5.8997803 -0.9046936 8.947144c-0.081329346 0.6210327 -0.24057007 2.058075 -0.4777527 4.3111267c-0.23043823 2.2530212 -0.45407104 4.6071777 -0.67092896 7.0624084c-0.21685791 2.4552307 -0.32528687 4.70105 -0.32528687 6.7374573c0 4.9537964 0.71157837 9.163788 2.1347046 12.630005c1.4231262 3.4517822 3.6018677 5.1776733 6.536194 5.1776733c2.4599915 0 4.808136 -1.8414307 7.0444946 -5.524292c0.4182129 -0.6893616 0.832428 -1.5358582 1.2426453 -2.5395203l0 0c0.3088684 1.2108765 0.683197 2.2956848 1.1229553 3.254425c1.477356 3.2062378 3.3985596 4.809387 5.763672 4.809387c2.283905 0 4.5703735 -1.4038696 6.859375 -4.211609l0 0l-0.33895874 3.4100342l11.649292 0l4.4523315 -44.82248c0.44726562 -3.2207031 0.9961853 -5.712036 1.646759 -7.4740295c0.65057373 -1.7764282 1.3045349 -2.6646423 1.9618835 -2.6646423c0.630249 0 0.94537354 1.3359375 0.94537354 4.0078125c0 1.6753235 -0.14233398 3.9716797 -0.42694092 6.889099c-0.27786255 2.917389 -0.57940674 5.8997803 -0.9046936 8.947144c-0.081329346 0.6210327 -0.24060059 2.058075 -0.4777832 4.3111267c-0.23040771 2.2530212 -0.45404053 4.6071777 -0.67089844 7.0624084c-0.21685791 2.4552307 -0.32528687 4.70105 -0.32528687 6.7374573c0 4.9537964 0.71157837 9.163788 2.1347046 12.630005c1.4231262 3.4517822 3.6018372 5.1776733 6.536194 5.1776733c2.4599915 0 4.808136 -1.8414307 7.044464 -5.524292c0.51986694 -0.85687256 1.0335388 -1.956543 1.5410156 -3.2990112l0 0c0.30511475 1.0325317 0.65115356 1.9733276 1.0380859 2.8224182c1.5025024 3.2729492 3.30661 5.207062 5.412384 5.802368l0 0c-0.7858887 1.2207642 -1.4888 2.6661987 -2.1087036 4.3363037c-1.0775146 2.917389 -1.6162415 6.6435547 -1.6162415 11.178528c0 5.0260315 0.877594 9.142151 2.632782 12.348389c1.7551575 3.2062683 3.7678833 4.809387 6.038086 4.809387c2.8259277 0 5.414673 -1.8414307 7.766205 -5.524292c2.3515625 -3.668396 3.9779968 -10.10257 4.879303 -19.30246l7.9491577 -80.54617l-11.720459 0l0.09259033 1.94104l0 0c-0.017181396 -0.026138306 -0.034484863 -0.052124023 -0.0519104 -0.077941895c-1.1317444 -1.6897888 -2.6870117 -2.534668 -4.6658325 -2.534668c-3.727234 0 -6.905548 2.7151947 -9.534943 8.145599c-2.6293945 5.4303894 -4.5912476 11.936768 -5.88562 19.519104c-1.2875977 7.582367 -1.9313965 14.818085 -1.9313965 21.707184c0 0.0040283203 0 0.008056641 0 0.012084961l0 0c-0.3777771 1.6158142 -0.7122803 2.796051 -1.003479 3.5407715c-0.5760498 1.4587097 -1.2842102 2.1880493 -2.1245422 2.1880493c-0.50823975 0 -0.83691406 -0.18774414 -0.98602295 -0.56326294c-0.14230347 -0.3899231 -0.21347046 -1.1409607 -0.21347046 -2.2530212c0 -1.31427 0.12878418 -3.2207031 0.3862915 -5.719269c0.26428223 -2.4985657 0.55908203 -5.112671 0.8843689 -7.8423157c0.5489197 -4.5782776 0.97247314 -8.492218 1.2706604 -11.741791c0.30493164 -3.2640076 0.45742798 -6.275299 0.45742798 -9.033813c0 -5.878113 -0.7590027 -10.319214 -2.277008 -13.323257c-1.5112305 -3.0040588 -3.4968262 -4.5060883 -5.956787 -4.5060883c-3.1783142 0 -5.096161 1.234848 -5.7535095 3.7045135l0.7420654 -3.162918l-11.659454 0l-4.4031067 44.296783l0 0c-0.5267639 3.5143433 -1.1546326 6.0292664 -1.8835144 7.5448c-0.8267517 1.7330933 -1.6704712 2.59964 -2.531128 2.59964c-0.5827942 0 -0.9385681 -0.1227417 -1.0673218 -0.36828613c-0.12200928 -0.24551392 -0.1829834 -0.837677 -0.1829834 -1.7764282c0 -1.2854004 0.07116699 -2.4985657 0.21347046 -3.6395264l4.838623 -48.656982l-11.659454 0l-4.4255676 44.558777l0 0c-0.75582886 3.8502197 -1.3838806 6.415039 -1.8841553 7.694397c-0.5760193 1.4587097 -1.2842102 2.1880493 -2.1245117 2.1880493c-0.50827026 0 -0.8369446 -0.18774414 -0.98602295 -0.56326294c-0.14233398 -0.3899231 -0.21347046 -1.1409607 -0.21347046 -2.2530212c0 -1.31427 0.12875366 -3.2207031 0.386261 -5.719269c0.26431274 -2.4985657 0.55908203 -5.112671 0.8843689 -7.8423157c0.5489197 -4.5782776 0.97247314 -8.492218 1.2706604 -11.741791c0.30496216 -3.2640076 0.45742798 -6.275299 0.45742798 -9.033813c0 -5.878113 -0.7590027 -10.319214 -2.277008 -13.323257c-1.5112305 -3.0040588 -3.4968262 -4.5060883 -5.956787 -4.5060883c-3.1783142 0 -5.0961304 1.234848 -5.753479 3.7045135l0.7420349 -3.162918l-11.659454 0l-1.1143494 11.210693c-0.1302185 -2.7920532 -0.61990356 -5.258011 -1.4690552 -7.3978577c-0.9961853 -2.5418854 -2.3650818 -3.8128357 -4.10672 -3.8128357c-1.5722351 0 -2.9987488 0.80155945 -4.279541 2.4046936c-0.89242554 1.1128082 -1.4490051 1.9598694 -1.6697693 2.5412292l0.81588745 -4.945923l-11.659454 0l-4.4381714 44.64966l0 0c-0.5504761 3.696045 -1.1134033 6.3244324 -1.6888123 7.8851624c-0.67089844 1.8053284 -1.3790894 2.7079773 -2.1245117 2.7079773c-0.84033203 0 -1.260498 -0.9821167 -1.260498 -2.946289c0 -1.270935 0.07116699 -2.4768982 0.21347046 -3.617859l4.838623 -48.67865l-11.659454 0l0.0769043 2.010849c-0.031951904 -0.049819946 -0.06436157 -0.09907532 -0.097229004 -0.14775085c-1.1317444 -1.6897888 -2.6870117 -2.534668 -4.6658325 -2.534668c-3.727234 0 -6.905548 2.7151947 -9.534943 8.145599c-2.6293945 5.4303894 -4.591278 11.936768 -5.88562 19.519104c-1.1299438 6.6539 -1.7640686 13.0408325 -1.9024353 19.160858l0 0c-1.4527893 3.1790466 -2.723938 5.5226135 -3.813385 7.030731c-1.4434814 1.9930725 -3.161377 2.989624 -5.1537476 2.989624c-1.2198486 0 -2.0601501 -0.49829102 -2.5209656 -1.494812c-0.45407104 -1.0109863 -0.6810913 -3.3145752 -0.6810913 -6.9107666c0 -0.82321167 0.016967773 -1.7330933 0.050842285 -2.7296448c1.9245911 -0.27441406 4.0796204 -1.7764282 6.4650574 -4.506073c2.385437 -2.7296448 4.310028 -6.3908386 5.7738037 -10.983582c1.470581 -4.5927124 2.205841 -9.654846 2.205841 -15.18634c0 -10.369766 -2.7242432 -15.554642 -8.172791 -15.554642z" fill-rule="evenodd"/><defs><radialGradient id="p.3" gradientUnits="userSpaceOnUse" gradientTransform="matrix(19.157860581162083 0.0 0.0 19.157860581162083 0.0 0.0)" spreadMethod="pad" cx="21.42290812080662" cy="14.687687239205163" fx="21.42290812080662" fy="14.687687239205163" r="19.157859802246094"><stop offset="0.0" stop-color="#d4e5f5"/><stop offset="0.5" stop-color="#cc4125"/><stop offset="1.0" stop-color="#70a4d5"/></radialGradient></defs><path fill="url(#p.3)" d="m648.49725 216.97807c-1.7416382 0 -3.2155762 1.3214874 -4.421814 3.9644775c-1.2062988 2.62854 -1.8093872 5.7842407 -1.8093872 9.467102c0 3.6972961 0.6030884 6.8385468 1.8093872 9.423767c1.2130127 2.5707703 2.6870117 3.8561554 4.421814 3.8561554c1.7280884 0 3.2088013 -1.2853851 4.4421997 -3.8561554c1.2401733 -2.5707855 1.8602295 -5.712036 1.8602295 -9.423767c0 -3.6972961 -0.6166992 -6.860214 -1.8500366 -9.48877c-1.2333984 -2.62854 -2.7175293 -3.94281 -4.4523926 -3.94281zm-72.9928 30.370804c0 0 0 0 0 0l0 0l0 0zm53.115784 2.933075l0 0l0 0c0 0 0 0 0 0zm11.525391 6.271057c0 0 0 0 0 0l0 0l0 0zm-111.48663 -26.978638l-2.703003 27.048523c-1.2062378 -1.0687561 -2.7919922 -2.01474 -4.757263 -2.837967c1.2943115 -5.560379 2.869934 -10.998001 4.7268066 -16.312866c1.7758179 -5.083069 2.6870117 -7.715622 2.7334595 -7.89769zm44.022644 28.889954c0.45404053 0 0.77593994 0.25994873 0.96569824 0.7799072c0.1965332 0.50546265 0.2947998 0.86654663 0.2947998 1.0831909l-3.161377 31.21759c-0.30493164 2.59964 -0.84368896 4.6216125 -1.616272 6.065857c-0.772522 1.4442444 -1.473938 2.1663818 -2.104187 2.1663818c-0.52178955 0 -0.95892334 -0.35385132 -1.3113403 -1.0615234c-0.34558105 -0.72213745 -0.5183716 -2.902954 -0.5183716 -6.5424805c0 -4.2027893 0.35913086 -9.069916 1.0775146 -14.60141c0.71832275 -5.5315247 1.6569214 -10.095367 2.8157349 -13.691559c1.1588135 -3.6106567 2.3447876 -5.4159546 3.5578003 -5.4159546zm31.22754 -0.6715698c0.35235596 0 0.59973145 0.24551392 0.7420044 0.73654175c0.14910889 0.47662354 0.24060059 1.2854004 0.2744751 2.426361c-1.2537231 1.1265259 -1.8805542 4.123352 -1.8805542 8.990509c0 4.664917 0.50823975 7.24292 1.5247803 7.7339783c-0.21008301 3.2495728 -0.66748047 6.860199 -1.3723145 10.831909c-0.70477295 3.9572754 -1.4671631 6.9396667 -2.2871704 8.947174c-0.8131714 1.9930725 -1.5213623 2.989624 -2.1245117 2.989624c-0.74542236 0 -1.2469482 -0.4116211 -1.5044556 -1.2348633c-0.25750732 -0.82321167 -0.38623047 -3.0834656 -0.38623047 -6.7807617c0 -4.260559 0.37945557 -9.236023 1.1384888 -14.926392c0.75897217 -5.7048035 1.7009277 -10.413086 2.8259277 -14.124817c1.1317139 -3.7261963 2.1482544 -5.589264 3.0495605 -5.589264zm154.63293 14.406128c0.016479492 2.4141235 0.10534668 5.569916 0.2666626 9.467407c0.24395752 4.7082825 0.36590576 8.340576 0.36590576 10.896912c0 3.509552 -0.38623047 5.98645 -1.1588135 7.4306946c-0.7657471 1.4442444 -1.755127 2.1663818 -2.9682007 2.1663818c-0.9352417 0 -1.5891724 -0.45492554 -1.9619141 -1.3648071c-0.08532715 -0.21557617 -0.18078613 -0.44018555 -0.286438 -0.6738281l0 0c0.04046631 0.0014953613 0.081726074 0.0022277832 0.12384033 0.0022277832c1.1994629 0 2.171936 -0.9604187 2.9173584 -2.8812866c0.7522583 -1.9208374 1.1283569 -4.0583496 1.1283569 -6.4124756c0 -3.1484985 -0.32867432 -5.0910034 -0.98602295 -5.8275757c1.2208862 -5.0198364 2.0739746 -9.28772 2.5592651 -12.80365zm-223.15283 -60.138504c-3.788208 0 -7.6713257 3.8272705 -11.649292 11.481827c-3.9779663 7.6401215 -7.562866 16.847244 -10.754761 27.621399c-0.7996216 -0.15885925 -1.6569214 -0.23829651 -2.5717773 -0.23829651c-2.5277405 0 -4.8555603 0.80155945 -6.98349 2.4046783c-2.1211243 1.5886841 -3.828888 3.8417358 -5.12323 6.7591248c-1.2943726 2.902954 -1.9415588 6.231964 -1.9415588 9.98703c0 3.3217773 0.48794556 5.8997803 1.4637756 7.7339783c0.9826355 1.834198 2.2194214 2.7513123 3.7102966 2.7513123c1.260498 0 2.3752747 -0.6788025 3.3443604 -2.0364075c0.9690552 -1.357605 1.4536133 -3.3362122 1.4536133 -5.9358826c0 -1.357605 -0.1694336 -2.8451843 -0.50827026 -4.462738c-0.07141113 -0.34103394 -0.14782715 -0.6107788 -0.22918701 -0.80929565l0 0c0.54244995 -0.39770508 1.0965881 -0.8428345 1.6624756 -1.3354492c0.9623108 -0.8521118 1.6061096 -1.2998047 1.9313965 -1.3431396l0 0c-1.9788208 7.2790527 -3.8322754 16.052887 -5.560364 26.321564c-1.721283 10.254211 -2.5819397 18.508148 -2.5819397 24.76175c0 4.9682617 0.528595 8.716095 1.5857544 11.243561c1.05719 2.5274353 2.2600708 4.094452 3.6086426 4.70105c1.3553467 0.6210022 3.7373962 0.9315491 7.146118 0.9315491c-1.4976501 -4.072815 -2.2464905 -7.481262 -2.2464905 -10.225342c0 -6.5713806 0.74542236 -15.460785 2.2363586 -26.668182c1.4976196 -11.207428 3.2901 -21.613312 5.3773804 -31.21759c0.7860718 0.14440918 1.7856445 0.5487976 2.9987183 1.2131653c1.2197876 0.6643677 2.249878 1.4081421 3.09021 2.2313843l-4.9301147 49.50186l11.659424 0l10.246521 -102.33998c-2.107605 -2.0219574 -4.2524414 -3.0329285 -6.4345703 -3.0329285zm32.04425 113.50954c-0.33691406 3.2164001 -0.7391968 5.5374146 -1.2067871 6.9630737c-0.48114014 1.5020142 -0.85046387 2.2530212 -1.1079712 2.2530212c-0.27789307 0 -0.4845581 -0.158844 -0.6201172 -0.47659302c-0.13549805 -0.3177185 -0.2033081 -0.70043945 -0.2033081 -1.1481934c0 -2.926178 1.0460815 -5.4566345 3.1381836 -7.5913086zm-11.020691 -107.35701l-11.984741 3.4445496l-6.871704 68.60939c-0.35235596 3.7406006 -0.52856445 6.816864 -0.52856445 9.22879c0 6.065857 0.73864746 10.7091675 2.2160034 13.92984c1.477356 3.2062378 3.3985596 4.809387 5.763672 4.809387c2.6361694 0 5.275696 -1.8703308 7.91864 -5.6109314c0.68743896 -0.970459 1.3538818 -2.2402954 1.9993896 -3.8095398l0 0c0.34448242 1.2696533 0.7468872 2.4095154 1.2072144 3.4195862c1.8364868 4.00058 4.123657 6.000885 6.86145 6.000885c0.1126709 0 0.22375488 -0.0014038086 0.333313 -0.004180908l0 0c-0.6343384 0.82702637 -1.2503052 1.7166138 -1.8479004 2.6688232c-2.1482544 3.437317 -3.222351 8.145599 -3.222351 14.124817c0 5.0837708 0.80981445 8.968842 2.4294434 11.655151c1.61969 2.6863098 3.574768 4.02948 5.8653564 4.02948c2.8665771 0 5.4451294 -1.8197632 7.7356567 -5.4592896c2.2973633 -3.6250916 3.8898926 -10.080902 4.777649 -19.367462l0.78271484 -7.907318c2.0940552 -1.1553955 4.1812744 -3.7333984 6.26178 -7.7339783c0.21392822 -0.41152954 0.42492676 -0.8585205 0.6331177 -1.3410339l0 0c0.38336182 1.2189941 0.8297119 2.3087158 1.3389893 3.269104c2.0601196 3.8706055 4.7945557 5.805908 8.203308 5.805908c2.8191528 0 5.411255 -1.7980957 7.776367 -5.394287c2.3718872 -3.5961914 4.282898 -8.593323 5.7331543 -14.991394c1.4570312 -6.398041 2.3312378 -13.092163 2.6226196 -20.082367c0.729187 -0.2479248 1.4869385 -0.6224365 2.2731323 -1.1235352l0 0l-4.0803833 41.049988l11.649292 0l5.133423 -51.906555c0.67767334 -1.3287048 1.2469482 -2.2819214 1.7077637 -2.8596191c0.3991089 -0.49310303 0.8599243 -0.7757263 1.3824463 -0.8479614l0 0c-0.0032348633 0.29208374 0.020507812 0.66137695 0.07116699 1.1079102c0.1965332 2.1375122 0.5421753 3.9500427 1.0368652 5.437622c0.49468994 1.4731445 1.4265137 2.2097168 2.7954102 2.2097168c1.8161621 0 3.2359009 -1.2637329 4.2592163 -3.7911682c0.2609253 -0.6444092 0.4885254 -1.3127747 0.68292236 -2.005066l0 0l-2.5314941 25.488678c-0.352417 3.7406006 -0.5286255 6.816864 -0.5286255 9.22879c0 6.065857 0.73864746 10.7091675 2.2160034 13.92984c1.477356 3.2062378 3.3985596 4.809387 5.763672 4.809387c2.6361694 0 5.275757 -1.8703308 7.918701 -5.6109314c0.5845947 -0.82528687 1.1539917 -1.8670654 1.708252 -3.1253967l0 0c0.33685303 1.4850159 0.7651367 2.7940063 1.28479 3.926941c1.477356 3.2062378 3.3985596 4.809387 5.763672 4.809387c2.284668 0 4.5718994 -1.4047852 6.8616333 -4.2143555l0 0l-0.34124756 3.4127808l11.649353 0l4.4523315 -44.82248c0.44726562 -3.2207031 0.9961548 -5.712036 1.6467285 -7.4740295c0.65057373 -1.7764282 1.3045654 -2.6646423 1.9619141 -2.6646423c0.630249 0 0.94537354 1.3359375 0.94537354 4.0078125c0 1.6753235 -0.14233398 3.9716797 -0.42694092 6.889099c-0.27789307 2.917389 -0.5794678 5.8997803 -0.9047241 8.947144c-0.08129883 0.6210327 -0.24060059 2.058075 -0.4777832 4.3111267c-0.23040771 2.2530212 -0.45404053 4.6071777 -0.67089844 7.0624084c-0.21685791 2.4552307 -0.32525635 4.70105 -0.32525635 6.7374573c0 4.9537964 0.71154785 9.163788 2.1346436 12.630005c1.4231567 3.4517822 3.6018677 5.1776733 6.536255 5.1776733c1.8051147 0 3.5500488 -0.99154663 5.234741 -2.9746094l0 0l-0.21600342 2.1730347l11.649292 0l4.4523315 -44.82248c0.44726562 -3.3073425 1.0029907 -5.849243 1.6671143 -7.6256714c0.67089844 -1.7764282 1.3824463 -2.6646423 2.1346436 -2.6646423c0.3795166 0 0.5692749 1.0326233 0.5692749 3.097931c0 0.9243164 -0.050842285 1.8197327 -0.15246582 2.6863098l-4.899658 49.328552l11.659485 0l4.4523315 -44.82248c0.44049072 -3.2207031 0.98602295 -5.712036 1.6365967 -7.4740295c0.65057373 -1.7764282 1.3079224 -2.6646423 1.9720459 -2.6646423c0.630249 0 0.94537354 1.3359375 0.94537354 4.0078125c0 1.6753235 -0.14233398 3.9716797 -0.42694092 6.889099c-0.27783203 2.917389 -0.57940674 5.8997803 -0.9046631 8.947144c-0.08135986 0.6210327 -0.24060059 2.058075 -0.4777832 4.3111267c-0.23040771 2.2530212 -0.45404053 4.6071777 -0.67089844 7.0624084c-0.21685791 2.4552307 -0.32531738 4.70105 -0.32531738 6.7374573c0 4.9537964 0.7116089 9.163788 2.1347046 12.630005c1.4231567 3.4517822 3.6018677 5.1776733 6.536194 5.1776733c2.459961 0 4.8081665 -1.8414307 7.0444946 -5.524292c0.2788086 -0.45947266 0.5557251 -0.98880005 0.83081055 -1.5879211l0 0c0.680603 1.6663513 1.5228271 3.098297 2.5266113 4.2958984c1.5858154 1.877533 3.4866943 2.8163147 5.7026978 2.8163147c2.1143188 0 4.211731 -0.83047485 6.2922363 -2.4913635c2.0805054 -1.6608887 3.8492432 -4.4410706 5.3062134 -8.340576c1.4638062 -3.91391 2.1956787 -8.903839 2.1956787 -14.969696c0 -2.469696 -0.105041504 -6.4052734 -0.3151245 -11.806793c-0.49468994 -13.186066 -0.86743164 -26.451553 -1.1181641 -39.79648l-11.476501 3.2929077c-1.2401123 8.420013 -2.456604 15.764038 -3.649292 22.032104c-1.1859131 6.2536316 -2.5142212 12.182312 -3.9847412 17.78601c-0.88775635 0.96765137 -1.7213135 2.758545 -2.5006104 5.37265c-0.7504883 2.517212 -1.1395874 5.42276 -1.1674194 8.716705l0 0c-0.5404663 1.1646118 -1.189148 1.7469177 -1.946106 1.7469177c-0.50823975 0 -0.83691406 -0.18774414 -0.98602295 -0.56326294c-0.14227295 -0.3899231 -0.21343994 -1.1409607 -0.21343994 -2.2530212c0 -1.31427 0.12878418 -3.2207031 0.3862915 -5.719269c0.26428223 -2.4985657 0.55908203 -5.112671 0.8843384 -7.8423157c0.5489502 -4.5782776 0.97247314 -8.492218 1.2706299 -11.741791c0.30499268 -3.2640076 0.4574585 -6.275299 0.4574585 -9.033813c0 -5.878113 -0.75561523 -10.319214 -2.2668457 -13.323257c-1.5044556 -3.0040588 -3.4934082 -4.5060883 -5.966919 -4.5060883c-3.9711914 0 -6.6277466 2.2169342 -7.9695435 6.6508026c-0.36590576 -4.520523 -2.7445679 -6.780777 -7.1359253 -6.780777c-3.3477783 0 -5.3706055 1.2781677 -6.0686035 3.834488l0.7420044 -3.162918l-11.659424 0l-4.4328003 44.59555l0 0c-0.7526245 3.829773 -1.3782349 6.382324 -1.8769531 7.6576233c-0.57598877 1.4587097 -1.2841797 2.1880493 -2.1245117 2.1880493c-0.50823975 0 -0.83691406 -0.18774414 -0.98602295 -0.56326294c-0.14227295 -0.3899231 -0.21343994 -1.1409607 -0.21343994 -2.2530212c0 -1.31427 0.12872314 -3.2207031 0.3862915 -5.719269c0.26428223 -2.4985657 0.55908203 -5.112671 0.8843384 -7.8423157c0.5489502 -4.5782776 0.97247314 -8.492218 1.2706299 -11.741791c0.30499268 -3.2640076 0.4574585 -6.275299 0.4574585 -9.033813c0 -5.878113 -0.75897217 -10.319214 -2.2769775 -13.323257c-1.5112305 -3.0040588 -3.4968262 -4.5060883 -5.956787 -4.5060883c-3.1783447 0 -4.8826904 0.33940125 -5.113098 1.0182037l2.8360596 -27.599731l-11.984741 3.4445496l-6.762329 67.637405l0 0c-0.53692627 3.6915283 -1.1813965 6.319092 -1.9334106 7.8827515c-0.8267822 1.7330933 -1.6704712 2.59964 -2.531128 2.59964c-0.5828247 0 -0.93859863 -0.1227417 -1.0673828 -0.36828613c-0.12194824 -0.24551392 -0.18292236 -0.837677 -0.18292236 -1.7764282c0 -1.2854004 0.07110596 -2.491333 0.21343994 -3.617859l3.781433 -37.803406l3.7611084 0l1.0165405 -10.875244l-3.720459 0l2.1651611 -21.53386l-11.974548 3.4445496l-1.8399048 18.08931l-2.0838623 0l-1.0165405 10.875244l2.043213 0l-3.3433838 33.33661l0 0c-0.52941895 3.5588074 -1.161438 6.102051 -1.8961792 7.62973c-0.8267822 1.7330933 -1.6704712 2.59964 -2.531128 2.59964c-0.5828247 0 -0.93859863 -0.1227417 -1.0673828 -0.36828613c-0.12194824 -0.24551392 -0.18292236 -0.837677 -0.18292236 -1.7764282c0 -1.2854004 0.07110596 -2.4985657 0.21343994 -3.6395264l4.838623 -48.656982l-11.659485 0l-1.1140137 11.21698c-0.12982178 -2.794632 -0.6195679 -5.26268 -1.4693604 -7.4041443c-0.9962158 -2.5418854 -2.3651123 -3.8128357 -4.1067505 -3.8128357c-1.5722046 0 -2.9987183 0.80155945 -4.279541 2.4046936c-0.892395 1.1128082 -1.4489746 1.9598694 -1.6697388 2.5412292l0 0l0.81585693 -4.945923l-11.659485 0l-1.84729 18.584686l0 0c-1.2138062 0.97836304 -2.2989502 1.5532532 -3.255249 1.7247009l0 0c-0.32141113 -14.333923 -3.4124756 -21.5009 -9.273193 -21.5009c-4.2625732 0 -7.786499 2.8957367 -10.571777 8.68721c-2.7785034 5.777008 -4.781006 12.528931 -6.0076294 20.255676c-1.2197876 7.7123413 -1.8297119 14.738647 -1.8297119 21.078918c0 0.29562378 0.0013427734 0.58843994 0.0040893555 0.8784485l0 0c-0.5947876 2.8708496 -1.2061157 5.0477295 -1.8339233 6.5305786c-1.0639038 2.513031 -1.7687378 3.892273 -2.1143188 4.1378174l6.038086 -60.377136l-11.659424 0l0.078186035 2.012848l0 0c-0.032348633 -0.05050659 -0.06518555 -0.10041809 -0.09857178 -0.14974976c-1.1317139 -1.6897888 -2.6869507 -2.534668 -4.6657715 -2.534668c-3.727234 0 -6.9055786 2.7151947 -9.534973 8.145599c-2.6293945 5.4303894 -4.5912476 11.936768 -5.88562 19.519104c-1.2875977 7.582367 -1.9313965 14.818085 -1.9313965 21.707184c0 0.088378906 1.2207031E-4 0.17648315 3.6621094E-4 0.26437378l0 0c-0.30358887 1.1897278 -0.63049316 2.1486816 -0.9807129 2.876892c-0.8267822 1.7330933 -1.6704712 2.59964 -2.531128 2.59964c-0.5828247 0 -0.93859863 -0.1227417 -1.0673828 -0.36828613c-0.12194824 -0.24551392 -0.1829834 -0.837677 -0.1829834 -1.7764282c0 -1.2854004 0.07116699 -2.491333 0.21350098 -3.617859l7.573059 -75.80177z" fill-rule="evenodd"/><path stroke="#ffffff" stroke-width="2.0" stroke-linejoin="round" stroke-linecap="butt" d="m195.63734 216.97807c-1.7416382 0 -3.2155914 1.3214874 -4.4218597 3.9644775c-1.206253 2.62854 -1.8094025 5.7842407 -1.8094025 9.467102c0 3.6972961 0.6031494 6.8385468 1.8094025 9.423767c1.2130585 2.5707703 2.6870117 3.8561554 4.4218597 3.8561554c1.7280731 0 3.2088013 -1.2853851 4.4421844 -3.8561554c1.2401428 -2.5707855 1.8602142 -5.712036 1.8602142 -9.423767c0 -3.6972961 -0.6166687 -6.860214 -1.8500519 -9.48877c-1.2333832 -2.62854 -2.7174988 -3.94281 -4.452347 -3.94281zm-78.802414 30.368805c0 0 0 0 0 0l0 0l0 0zm-51.261887 -19.688538l-5.7837067 33.34169l0 0c-0.066589355 -0.60150146 -0.15140533 -1.1217651 -0.2544098 -1.560852c-0.29141235 -1.2420349 -0.43709946 -3.3362122 -0.43709946 -6.282501c0 -6.946869 0.77934265 -12.723892 2.3379898 -17.33107c1.5654373 -4.6071777 2.9445229 -7.329605 4.137226 -8.167267zm-5.7837067 33.34169c0 0 0 0 0 0l0 0l0 0zm190.12158 -4.2688293c0.17619324 0 0.2642975 0.8954468 0.2642975 2.6863403c0 3.1629028 -0.3761139 6.217499 -1.1283417 9.163788c-0.7522278 2.9318542 -1.7348633 5.3220825 -2.9479065 7.170746c-1.2062683 1.834198 -1.914444 2.7585144 -2.1245117 2.7729492c0.44726562 -4.448303 1.3113098 -9.192688 2.5921173 -14.233124c1.2875977 -5.0404663 2.4023743 -7.5606995 3.344345 -7.5606995zm-135.89749 1.7331238c0.45404053 0 0.7759323 0.25994873 0.9656906 0.7799072c0.1965332 0.50546265 0.29479218 0.91708374 0.29479218 1.2348328l-2.9682312 29.766113c-0.32528687 3.0762634 -0.887764 5.437622 -1.6874161 7.084076c-0.7996597 1.632019 -1.5417175 2.447998 -2.226181 2.447998c-0.52181244 0 -0.9589157 -0.35385132 -1.3113022 -1.0615234c-0.3456192 -0.72213745 -0.518425 -2.902954 -0.518425 -6.5424805c0 -4.2027893 0.35917664 -9.069916 1.077507 -14.60141c0.7183304 -5.5315247 1.6569214 -10.095367 2.8157578 -13.691559c1.1588287 -3.6106567 2.344757 -5.4159546 3.557808 -5.4159546zm-42.15831 -46.403946c-3.3003082 0 -6.590454 1.8558655 -9.870388 5.5675964c-3.2799797 3.6972961 -5.983917 8.528336 -8.111813 14.493118c-2.1211472 5.9503326 -3.1817017 11.98732 -3.1817017 18.110962c0 9.434143 2.796852 14.383179 8.390522 14.847076l0 0l-9.081753 52.354156l7.766197 0l9.524773 -62.803467l-2.6124496 62.803467l10.785248 0l10.876747 -62.543503l-5.4993668 62.543503l11.628967 0l6.9326477 -103.50983l-11.364662 0l-12.879288 72.9205l2.785263 -72.07561c-2.3718796 -1.8053284 -4.4015274 -2.7079773 -6.0889435 -2.7079773zm99.39881 6.152527l-11.984741 3.4445496l-6.777542 67.789444l0 0c-1.8371582 4.2344055 -3.411255 7.259033 -4.722275 9.073853c-1.4434662 1.9930725 -3.161377 2.989624 -5.1537476 2.989624c-1.2198181 0 -2.060135 -0.49829102 -2.5209656 -1.494812c-0.45404053 -1.0109863 -0.6810608 -3.3145752 -0.6810608 -6.9107666c0 -4.7227173 0.37950134 -10.066467 1.1384888 -16.03125c0.76579285 -5.9792175 1.6942139 -10.860779 2.785263 -14.644745c1.0910645 -3.7984009 2.016098 -5.6976013 2.7751007 -5.6976013c0.101638794 0 0.1999054 0.16610718 0.29478455 0.49829102c0.10165405 0.3177185 0.15248108 1.0470886 0.15248108 2.1880493c0 1.9786072 -0.34222412 4.968231 -1.0266876 8.968811c1.545105 2.1663818 2.7988129 3.2495728 3.7611084 3.2495728c1.3824768 0 2.4972534 -1.1409607 3.344345 -3.422882c0.84710693 -2.2963562 1.2706604 -5.31485 1.2706604 -9.055481c0 -4.303879 -0.65734863 -7.878418 -1.9720459 -10.723602c-1.3079224 -2.8596191 -3.395172 -4.289444 -6.2617493 -4.289444c-4.235489 0 -7.711975 2.8957367 -10.429474 8.68721c-2.7174988 5.7914734 -4.675995 12.5433655 -5.875473 20.255676c-1.1994934 7.7123413 -1.7992401 14.781982 -1.7992401 21.208893c0 0.1937561 5.722046E-4 0.38632202 0.001701355 0.57769775l0 0c-0.27126312 1.24646 -0.5454254 2.2453918 -0.822464 2.9968567c-0.67089844 1.8053284 -1.3790665 2.7079773 -2.1245193 2.7079773c-0.8403168 0 -1.2604828 -0.9821167 -1.2604828 -2.946289c0 -1.270935 0.07115173 -2.4768982 0.21347046 -3.617859l4.838623 -48.67865l-11.659462 0l0.07689667 2.010849c-0.031929016 -0.049819946 -0.064331055 -0.09907532 -0.097229004 -0.14775085c-1.1317291 -1.6897888 -2.6869965 -2.534668 -4.6658173 -2.534668c-3.7272186 0 -6.905525 2.7151947 -9.534935 8.145599c-2.629387 5.4303894 -4.591263 11.936768 -5.8856354 19.519104c-1.2875824 7.582367 -1.9313889 14.818085 -1.9313889 21.707184c0 8.116699 0.9148712 14.182587 2.7445984 18.197632c1.8365021 4.00058 4.1236725 6.000885 6.861496 6.000885c2.317665 0 4.3032684 -1.2637329 5.9567947 -3.7911682c1.6013336 -2.4476929 2.465416 -4.0826416 2.5922394 -4.9048767l0 0c-0.07028198 0.7586975 0.5260315 2.3792114 1.7889557 4.8615417c1.3079147 2.5563354 3.0055008 3.8345032 5.0927505 3.8345032c2.5683975 0 5.0995255 -1.877533 7.5933914 -5.632599c0.632843 -0.95288086 1.2506332 -2.1908264 1.8533554 -3.7138062l0 0c0.37419128 1.2792664 0.81269836 2.4233398 1.315567 3.4321594c1.9720306 3.94281 4.672577 5.9142456 8.101639 5.9142456c4.2954407 0 8.306732 -3.471283 12.033905 -10.413849l0 0l-0.96102905 9.612274l11.649292 0l4.452347 -44.82248c0.44728088 -3.2207031 0.99620056 -5.712036 1.646759 -7.4740295c0.65057373 -1.7764282 1.3045502 -2.6646423 1.9618835 -2.6646423c0.630249 0 0.9453583 1.3359375 0.9453583 4.0078125c0 1.6753235 -0.14230347 3.9716797 -0.42692566 6.889099c-0.27786255 2.917389 -0.579422 5.8997803 -0.90470886 8.947144c-0.08131409 0.6210327 -0.24057007 2.058075 -0.47776794 4.3111267c-0.23039246 2.2530212 -0.45402527 4.6071777 -0.67089844 7.0624084c-0.21685791 2.4552307 -0.32528687 4.70105 -0.32528687 6.7374573c0 4.9537964 0.7115631 9.163788 2.1346893 12.630005c1.4231262 3.4517822 3.6018677 5.1776733 6.536209 5.1776733c2.4599762 0 4.808136 -1.8414307 7.0444794 -5.524292c0.4182129 -0.6893616 0.83244324 -1.5358582 1.2426605 -2.5395203l0 0c0.3088684 1.2108765 0.683197 2.2956848 1.1229553 3.254425c1.477356 3.2062378 3.3985748 4.809387 5.7636566 4.809387c2.2839355 0 4.570404 -1.4039001 6.8593903 -4.2116394l0 0l-0.33895874 3.4100647l11.649292 0l4.452347 -44.82248c0.44726562 -3.2207031 0.9961853 -5.712036 1.646759 -7.4740295c0.65057373 -1.7764282 1.3045349 -2.6646423 1.9618835 -2.6646423c0.63023376 0 0.9453583 1.3359375 0.9453583 4.0078125c0 1.6753235 -0.14230347 3.9716797 -0.42694092 6.889099c-0.2778473 2.917389 -0.57940674 5.8997803 -0.9046936 8.947144c-0.081329346 0.6210327 -0.24057007 2.058075 -0.47776794 4.3111267c-0.23040771 2.2530212 -0.45404053 4.6071777 -0.67089844 7.0624084c-0.21685791 2.4552307 -0.32528687 4.70105 -0.32528687 6.7374573c0 4.9537964 0.7115631 9.163788 2.1346893 12.630005c1.4231262 3.4517822 3.6018677 5.1776733 6.536209 5.1776733c2.4599762 0 4.808136 -1.8414307 7.044464 -5.524292c0.524292 -0.86416626 1.0422668 -1.9753113 1.5539856 -3.333435l0 0c0.34036255 1.0837097 0.7294922 2.0648804 1.1674347 2.9434814c1.9720306 3.94281 4.64888 5.9142456 8.030487 5.9142456c6.803894 0 11.05632 -9.943726 12.757294 -29.831116l0 0c-2.8665771 5.3870544 -4.8928375 8.67276 -6.078781 9.857056c-1.1859283 1.1842651 -2.2668304 1.7764282 -3.242691 1.7764282c-1.7145233 0 -2.5717773 -2.758545 -2.5717773 -8.275604c0 -0.6210022 0.0067749023 -1.0831909 0.020324707 -1.3864746c1.944931 -0.27441406 4.106735 -1.7764282 6.485382 -4.506073c2.385437 -2.7296448 4.313431 -6.383606 5.7839813 -10.961914c1.4705658 -4.5927124 2.2058563 -9.662079 2.2058563 -15.208008c0 -10.369766 -2.7242737 -15.554642 -8.172806 -15.554642c-4.2761536 0 -7.783142 2.8957367 -10.520966 8.68721c-2.7378235 5.7914734 -4.6963043 12.550568 -5.875473 20.277344c-1.1791534 7.7123413 -1.7687378 14.77475 -1.7687378 21.187225c0 0.0036010742 0 0.0072021484 0 0.010803223l0 0c-0.35290527 1.4836731 -0.6670685 2.5777283 -0.9425049 3.2821045c-0.5760193 1.4587097 -1.284195 2.1880493 -2.124527 2.1880493c-0.508255 0 -0.8369293 -0.18774414 -0.98602295 -0.56326294c-0.14230347 -0.3899231 -0.21347046 -1.1409607 -0.21347046 -2.2530212c0 -1.31427 0.12875366 -3.2207031 0.38627625 -5.719269c0.2642975 -2.4985657 0.5590973 -5.112671 0.88438416 -7.8423157c0.5489197 -4.5782776 0.9724579 -8.492218 1.2706451 -11.741791c0.3049469 -3.2640076 0.45742798 -6.275299 0.45742798 -9.033813c0 -5.878113 -0.7589874 -10.319214 -2.2769928 -13.323257c-1.5112152 -3.0040588 -3.4968262 -4.5060883 -5.9568024 -4.5060883c-3.178299 0 -5.0961304 1.234848 -5.7534943 3.7045135l0.7420654 -3.162918l-11.65947 0l-4.4030457 44.296387l0 0c-0.52679443 3.514557 -1.1546631 6.0296326 -1.8835754 7.5451965c-0.82676697 1.7330933 -1.6704865 2.59964 -2.531128 2.59964c-0.58280945 0 -0.93859863 -0.1227417 -1.067337 -0.36828613c-0.12199402 -0.24551392 -0.1829834 -0.837677 -0.1829834 -1.7764282c0 -1.2854004 0.07115173 -2.4985657 0.21347046 -3.6395264l4.838623 -48.656982l-11.659454 0l-4.4255676 44.558777l0 0c-0.7558441 3.8502197 -1.3838959 6.415039 -1.8841553 7.694397c-0.5760193 1.4587097 -1.2841797 2.1880493 -2.1245117 2.1880493c-0.50827026 0 -0.8369446 -0.18774414 -0.98602295 -0.56326294c-0.14231873 -0.3899231 -0.21347046 -1.1409607 -0.21347046 -2.2530212c0 -1.31427 0.12875366 -3.2207031 0.38627625 -5.719269c0.2642975 -2.4985657 0.55908203 -5.112671 0.8843689 -7.8423157c0.5489197 -4.5782776 0.9724579 -8.492218 1.2706451 -11.741791c0.30496216 -3.2640076 0.45742798 -6.275299 0.45742798 -9.033813c0 -5.878113 -0.7589874 -10.319214 -2.2769928 -13.323257c-1.5112152 -3.0040588 -3.4968262 -4.5060883 -5.9568024 -4.5060883c-3.178299 0 -4.88266 0.33940125 -5.113083 1.0182037l2.83609 -27.599731z" fill-rule="evenodd"/><path stroke="#ffffff" stroke-width="2.0" stroke-linejoin="round" stroke-linecap="butt" d="m415.79062 216.97807c-1.7416382 0 -3.2156067 1.3214874 -4.421875 3.9644775c-1.2062683 2.62854 -1.8093872 5.7842407 -1.8093872 9.467102c0 3.6972961 0.6031189 6.8385468 1.8093872 9.423767c1.2130432 2.5707703 2.6870117 3.8561554 4.421875 3.8561554c1.7280579 0 3.2088013 -1.2853851 4.442169 -3.8561554c1.2401428 -2.5707855 1.8602295 -5.712036 1.8602295 -9.423767c0 -3.6972961 -0.6166992 -6.860214 -1.8500671 -9.48877c-1.2333679 -2.62854 -2.7174988 -3.94281 -4.4523315 -3.94281zm57.740967 30.298996c0 0 0 0 0 0l0 0l0 0zm-136.04373 0.06980896c0 0 0 0 0 0l0 0l0 0zm26.886017 2.9350739l0 0l0 0c0 0 0 0 0 0zm11.525085 6.2647705c0 0 0 0 0 0l0 0l0 0zm-65.84549 0.18447876c0.17617798 0 0.26428223 0.8954468 0.26428223 2.6863403c0 3.1629028 -0.37609863 6.1958313 -1.1283264 9.098785c-0.7522278 2.8885193 -1.7348633 5.2571106 -2.9479065 7.1057434c-1.2130432 1.8486633 -1.9110718 2.7874146 -2.0940247 2.8163147c0.3930359 -4.506073 1.2299805 -9.250458 2.5108032 -14.233154c1.2807922 -4.982666 2.4125366 -7.4740295 3.395172 -7.4740295zm24.612885 1.7331238c0.45404053 0 0.77593994 0.25994873 0.96569824 0.7799072c0.1965332 0.50546265 0.2947693 0.91708374 0.2947693 1.2348328l-2.9682312 29.766113c-0.32528687 3.0762634 -0.88775635 5.437622 -1.6874084 7.084076c-0.7996521 1.632019 -1.5417175 2.447998 -2.2261658 2.447998c-0.52182007 0 -0.95892334 -0.35385132 -1.3113098 -1.0615234c-0.34561157 -0.72213745 -0.5184326 -2.902954 -0.5184326 -6.5424805c0 -4.2027893 0.35916138 -9.069916 1.0775146 -14.60141c0.71832275 -5.5315247 1.6569214 -10.095367 2.8157654 -13.691559c1.1588135 -3.6106567 2.344757 -5.4159546 3.5578003 -5.4159546zm136.08905 0c0.67767334 0 1.087677 0.6354675 1.2299805 1.9064026l-3.120697 31.542572c-0.33883667 2.5707703 -0.8843689 4.5277405 -1.6365967 5.87088c-0.7522278 1.3287354 -1.4502258 1.9930725 -2.0940247 1.9930725c-0.52182007 0 -0.95892334 -0.35385132 -1.3113098 -1.0615234c-0.34561157 -0.72213745 -0.5184326 -2.902954 -0.5184326 -6.5424805c0 -4.2027893 0.35916138 -9.069916 1.0775146 -14.60141c0.71832275 -5.5315247 1.6569214 -10.095367 2.8157349 -13.691559c1.158844 -3.6106567 2.3447876 -5.4159546 3.5578308 -5.4159546zm-4.90979 63.561707l-0.2947998 3.097931c-0.33203125 3.1773376 -0.73187256 5.3365173 -1.1994629 6.477478c-0.46084595 1.1409607 -0.86743164 1.7114563 -1.2198486 1.7114563c-0.33883667 0 -0.6234436 -0.21664429 -0.8538513 -0.64993286c-0.23040771 -0.41882324 -0.34561157 -0.74380493 -0.34561157 -0.9748535c0 -2.4985657 0.49468994 -4.621643 1.4841003 -6.369171c0.9961853 -1.7331238 1.8059998 -2.8307495 2.4294739 -3.2929077zm-173.71921 -108.644165c-3.5984802 0 -7.193573 1.7475586 -10.785248 5.2426453c-3.5849304 3.495102 -6.5531616 8.138397 -8.904694 13.929855c-2.3515625 5.7770233 -3.5273132 11.850113 -3.5273132 18.219284c0 5.4592896 0.6878357 9.438232 2.063507 11.936768c1.3757019 2.4985657 3.7814636 3.7478638 7.217285 3.7478638c0 -2.440796 -0.14569092 -4.303894 -0.43710327 -5.589264c-0.29141235 -1.2998352 -0.43710327 -3.3795776 -0.43710327 -6.239197c0 -6.5424805 0.6878662 -12.037872 2.0635376 -16.48619c1.3756714 -4.448303 2.5717773 -7.112961 3.5883179 -7.9939575l0 0l-9.169006 90.92314c1.4909058 -0.3899536 2.5209656 -0.5849304 3.09021 -0.5849304c1.6196594 0 3.232544 0.70047 4.838623 2.10141c1.6061096 1.4009094 3.124115 3.148468 4.554016 5.2426453c1.4299011 2.108612 3.1715393 4.917694 5.224884 8.427216c2.8394775 4.7949524 5.228302 8.398376 7.1664734 10.810272c1.9381409 2.4263306 3.961029 3.6395264 6.0686035 3.6395264c2.175354 0 3.9271545 -2.1663818 5.2554016 -6.4991455c1.335022 -4.332794 2.2600403 -11.510742 2.7750854 -21.533875l0 0c-2.812378 2.4841309 -5.072418 3.7261963 -6.780182 3.7261963c-1.9110413 0 -3.7746582 -0.7799072 -5.590851 -2.3396912c-1.8161621 -1.5598145 -4.0525208 -3.8706055 -6.709015 -6.932434c-1.7755127 -2.0653076 -3.3036804 -3.7189636 -4.5844727 -4.961029c-1.2808228 -1.2420654 -2.1347046 -1.9786377 -2.5616455 -2.2097168l9.667084 -96.0358c-2.1075745 -0.36105347 -3.469696 -0.54159546 -4.0863953 -0.54159546zm17.428955 30.76265c-4.2761536 0 -7.783142 2.8957367 -10.520966 8.68721c-2.7378235 5.7914734 -4.6963196 12.550568 -5.875458 20.277344c-1.1791687 7.7123413 -1.7687378 14.77475 -1.7687378 21.187225c0 8.073395 0.9826355 14.081512 2.947876 18.024323c1.9720459 3.94281 4.6726074 5.9142456 8.101654 5.9142456c4.9088745 0 9.446686 -4.5335693 13.613373 -13.6006775l0 0c0.45742798 3.0503845 1.1455383 5.5836487 2.064331 7.5997925c1.8365173 4.00058 4.1236877 6.000885 6.861511 6.000885c2.3176575 0 4.303253 -1.2637329 5.956787 -3.7911682c1.6013489 -2.4476929 2.4654236 -4.0826416 2.5922241 -4.9048767l0 0c-0.07028198 0.7586975 0.526062 2.3792114 1.788971 4.8615417c1.3079224 2.5563354 3.0054932 3.8345032 5.092743 3.8345032c2.1091614 0 4.1931763 -1.2661438 6.252075 -3.7984009l0 0l-0.29788208 2.9968262l11.649292 0l5.1333923 -51.906555c0.67770386 -1.3287048 1.2469482 -2.2819214 1.7077637 -2.8596191c0.3991089 -0.49310303 0.8599243 -0.7757263 1.3824463 -0.8479614l0 0c-0.0032348633 0.29208374 0.020477295 0.66137695 0.07116699 1.1079102c0.1965332 2.1375122 0.5421448 3.9500427 1.0368652 5.437622c0.49468994 1.4731445 1.4265137 2.2097168 2.7954102 2.2097168c1.8161926 0 3.2359314 -1.2637329 4.2592163 -3.7911682c0.25982666 -0.64172363 0.4866333 -1.30719 0.68048096 -1.9963989l0 0l-5.233032 52.646454l11.649292 0l4.452362 -44.82248c0.44726562 -3.2207031 0.9961853 -5.712036 1.646759 -7.4740295c0.6505432 -1.7764282 1.3045044 -2.6646423 1.961853 -2.6646423c0.630249 0 0.94537354 1.3359375 0.94537354 4.0078125c0 1.6753235 -0.14230347 3.9716797 -0.42694092 6.889099c-0.27783203 2.917389 -0.57940674 5.8997803 -0.9046936 8.947144c-0.081329346 0.6210327 -0.24057007 2.058075 -0.4777527 4.3111267c-0.23043823 2.2530212 -0.45407104 4.6071777 -0.67092896 7.0624084c-0.21685791 2.4552307 -0.32528687 4.70105 -0.32528687 6.7374573c0 4.9537964 0.71157837 9.163788 2.1347046 12.630005c1.4231262 3.4517822 3.6018677 5.1776733 6.536194 5.1776733c2.4599915 0 4.808136 -1.8414307 7.0444946 -5.524292c0.4182129 -0.6893616 0.832428 -1.5358582 1.2426453 -2.5395203l0 0c0.3088684 1.2108765 0.683197 2.2956848 1.1229553 3.254425c1.477356 3.2062378 3.3985596 4.809387 5.763672 4.809387c2.283905 0 4.5703735 -1.4038696 6.859375 -4.211609l0 0l-0.33895874 3.4100342l11.649292 0l4.4523315 -44.82248c0.44726562 -3.2207031 0.9961853 -5.712036 1.646759 -7.4740295c0.65057373 -1.7764282 1.3045349 -2.6646423 1.9618835 -2.6646423c0.630249 0 0.94537354 1.3359375 0.94537354 4.0078125c0 1.6753235 -0.14233398 3.9716797 -0.42694092 6.889099c-0.27786255 2.917389 -0.57940674 5.8997803 -0.9046936 8.947144c-0.081329346 0.6210327 -0.24060059 2.058075 -0.4777832 4.3111267c-0.23040771 2.2530212 -0.45404053 4.6071777 -0.67089844 7.0624084c-0.21685791 2.4552307 -0.32528687 4.70105 -0.32528687 6.7374573c0 4.9537964 0.71157837 9.163788 2.1347046 12.630005c1.4231262 3.4517822 3.6018372 5.1776733 6.536194 5.1776733c2.4599915 0 4.808136 -1.8414307 7.044464 -5.524292c0.51986694 -0.85687256 1.0335388 -1.956543 1.5410156 -3.2990112l0 0c0.30511475 1.0325317 0.65115356 1.9733276 1.0380859 2.8224182c1.5025024 3.2729492 3.30661 5.207062 5.412384 5.802368l0 0c-0.7858887 1.2207642 -1.4888 2.6661987 -2.1087036 4.3363037c-1.0775146 2.917389 -1.6162415 6.6435547 -1.6162415 11.178528c0 5.0260315 0.877594 9.142151 2.632782 12.348389c1.7551575 3.2062683 3.7678833 4.809387 6.038086 4.809387c2.8259277 0 5.414673 -1.8414307 7.766205 -5.524292c2.3515625 -3.668396 3.9779968 -10.10257 4.879303 -19.30246l7.9491577 -80.54617l-11.720459 0l0.09259033 1.94104l0 0c-0.017181396 -0.026138306 -0.034484863 -0.052124023 -0.0519104 -0.077941895c-1.1317444 -1.6897888 -2.6870117 -2.534668 -4.6658325 -2.534668c-3.727234 0 -6.905548 2.7151947 -9.534943 8.145599c-2.6293945 5.4303894 -4.5912476 11.936768 -5.88562 19.519104c-1.2875977 7.582367 -1.9313965 14.818085 -1.9313965 21.707184c0 0.0040283203 0 0.008056641 0 0.012084961l0 0c-0.3777771 1.6158142 -0.7122803 2.796051 -1.003479 3.5407715c-0.5760498 1.4587097 -1.2842102 2.1880493 -2.1245422 2.1880493c-0.50823975 0 -0.83691406 -0.18774414 -0.98602295 -0.56326294c-0.14230347 -0.3899231 -0.21347046 -1.1409607 -0.21347046 -2.2530212c0 -1.31427 0.12878418 -3.2207031 0.3862915 -5.719269c0.26428223 -2.4985657 0.55908203 -5.112671 0.8843689 -7.8423157c0.5489197 -4.5782776 0.97247314 -8.492218 1.2706604 -11.741791c0.30493164 -3.2640076 0.45742798 -6.275299 0.45742798 -9.033813c0 -5.878113 -0.7590027 -10.319214 -2.277008 -13.323257c-1.5112305 -3.0040588 -3.4968262 -4.5060883 -5.956787 -4.5060883c-3.1783142 0 -5.096161 1.234848 -5.7535095 3.7045135l0.7420654 -3.162918l-11.659454 0l-4.4031067 44.296783l0 0c-0.5267639 3.5143433 -1.1546326 6.0292664 -1.8835144 7.5448c-0.8267517 1.7330933 -1.6704712 2.59964 -2.531128 2.59964c-0.5827942 0 -0.9385681 -0.1227417 -1.0673218 -0.36828613c-0.12200928 -0.24551392 -0.1829834 -0.837677 -0.1829834 -1.7764282c0 -1.2854004 0.07116699 -2.4985657 0.21347046 -3.6395264l4.838623 -48.656982l-11.659454 0l-4.4255676 44.558777l0 0c-0.75582886 3.8502197 -1.3838806 6.415039 -1.8841553 7.694397c-0.5760193 1.4587097 -1.2842102 2.1880493 -2.1245117 2.1880493c-0.50827026 0 -0.8369446 -0.18774414 -0.98602295 -0.56326294c-0.14233398 -0.3899231 -0.21347046 -1.1409607 -0.21347046 -2.2530212c0 -1.31427 0.12875366 -3.2207031 0.386261 -5.719269c0.26431274 -2.4985657 0.55908203 -5.112671 0.8843689 -7.8423157c0.5489197 -4.5782776 0.97247314 -8.492218 1.2706604 -11.741791c0.30496216 -3.2640076 0.45742798 -6.275299 0.45742798 -9.033813c0 -5.878113 -0.7590027 -10.319214 -2.277008 -13.323257c-1.5112305 -3.0040588 -3.4968262 -4.5060883 -5.956787 -4.5060883c-3.1783142 0 -5.0961304 1.234848 -5.753479 3.7045135l0.7420349 -3.162918l-11.659454 0l-1.1143494 11.210693c-0.1302185 -2.7920532 -0.61990356 -5.258011 -1.4690552 -7.3978577c-0.9961853 -2.5418854 -2.3650818 -3.8128357 -4.10672 -3.8128357c-1.5722351 0 -2.9987488 0.80155945 -4.279541 2.4046936c-0.89242554 1.1128082 -1.4490051 1.9598694 -1.6697693 2.5412292l0.81588745 -4.945923l-11.659454 0l-4.4381714 44.64966l0 0c-0.5504761 3.696045 -1.1134033 6.3244324 -1.6888123 7.8851624c-0.67089844 1.8053284 -1.3790894 2.7079773 -2.1245117 2.7079773c-0.84033203 0 -1.260498 -0.9821167 -1.260498 -2.946289c0 -1.270935 0.07116699 -2.4768982 0.21347046 -3.617859l4.838623 -48.67865l-11.659454 0l0.0769043 2.010849c-0.031951904 -0.049819946 -0.06436157 -0.09907532 -0.097229004 -0.14775085c-1.1317444 -1.6897888 -2.6870117 -2.534668 -4.6658325 -2.534668c-3.727234 0 -6.905548 2.7151947 -9.534943 8.145599c-2.6293945 5.4303894 -4.591278 11.936768 -5.88562 19.519104c-1.1299438 6.6539 -1.7640686 13.0408325 -1.9024353 19.160858l0 0c-1.4527893 3.1790466 -2.723938 5.5226135 -3.813385 7.030731c-1.4434814 1.9930725 -3.161377 2.989624 -5.1537476 2.989624c-1.2198486 0 -2.0601501 -0.49829102 -2.5209656 -1.494812c-0.45407104 -1.0109863 -0.6810913 -3.3145752 -0.6810913 -6.9107666c0 -0.82321167 0.016967773 -1.7330933 0.050842285 -2.7296448c1.9245911 -0.27441406 4.0796204 -1.7764282 6.4650574 -4.506073c2.385437 -2.7296448 4.310028 -6.3908386 5.7738037 -10.983582c1.470581 -4.5927124 2.205841 -9.654846 2.205841 -15.18634c0 -10.369766 -2.7242432 -15.554642 -8.172791 -15.554642z" fill-rule="evenodd"/><path stroke="#ffffff" stroke-width="2.0" stroke-linejoin="round" stroke-linecap="butt" d="m648.49725 216.97807c-1.7416382 0 -3.2155762 1.3214874 -4.421814 3.9644775c-1.2062988 2.62854 -1.8093872 5.7842407 -1.8093872 9.467102c0 3.6972961 0.6030884 6.8385468 1.8093872 9.423767c1.2130127 2.5707703 2.6870117 3.8561554 4.421814 3.8561554c1.7280884 0 3.2088013 -1.2853851 4.4421997 -3.8561554c1.2401733 -2.5707855 1.8602295 -5.712036 1.8602295 -9.423767c0 -3.6972961 -0.6166992 -6.860214 -1.8500366 -9.48877c-1.2333984 -2.62854 -2.7175293 -3.94281 -4.4523926 -3.94281zm-72.9928 30.370804c0 0 0 0 0 0l0 0l0 0zm53.115784 2.933075l0 0l0 0c0 0 0 0 0 0zm11.525391 6.271057c0 0 0 0 0 0l0 0l0 0zm-111.48663 -26.978638l-2.703003 27.048523c-1.2062378 -1.0687561 -2.7919922 -2.01474 -4.757263 -2.837967c1.2943115 -5.560379 2.869934 -10.998001 4.7268066 -16.312866c1.7758179 -5.083069 2.6870117 -7.715622 2.7334595 -7.89769zm44.022644 28.889954c0.45404053 0 0.77593994 0.25994873 0.96569824 0.7799072c0.1965332 0.50546265 0.2947998 0.86654663 0.2947998 1.0831909l-3.161377 31.21759c-0.30493164 2.59964 -0.84368896 4.6216125 -1.616272 6.065857c-0.772522 1.4442444 -1.473938 2.1663818 -2.104187 2.1663818c-0.52178955 0 -0.95892334 -0.35385132 -1.3113403 -1.0615234c-0.34558105 -0.72213745 -0.5183716 -2.902954 -0.5183716 -6.5424805c0 -4.2027893 0.35913086 -9.069916 1.0775146 -14.60141c0.71832275 -5.5315247 1.6569214 -10.095367 2.8157349 -13.691559c1.1588135 -3.6106567 2.3447876 -5.4159546 3.5578003 -5.4159546zm31.22754 -0.6715698c0.35235596 0 0.59973145 0.24551392 0.7420044 0.73654175c0.14910889 0.47662354 0.24060059 1.2854004 0.2744751 2.426361c-1.2537231 1.1265259 -1.8805542 4.123352 -1.8805542 8.990509c0 4.664917 0.50823975 7.24292 1.5247803 7.7339783c-0.21008301 3.2495728 -0.66748047 6.860199 -1.3723145 10.831909c-0.70477295 3.9572754 -1.4671631 6.9396667 -2.2871704 8.947174c-0.8131714 1.9930725 -1.5213623 2.989624 -2.1245117 2.989624c-0.74542236 0 -1.2469482 -0.4116211 -1.5044556 -1.2348633c-0.25750732 -0.82321167 -0.38623047 -3.0834656 -0.38623047 -6.7807617c0 -4.260559 0.37945557 -9.236023 1.1384888 -14.926392c0.75897217 -5.7048035 1.7009277 -10.413086 2.8259277 -14.124817c1.1317139 -3.7261963 2.1482544 -5.589264 3.0495605 -5.589264zm154.63293 14.406128c0.016479492 2.4141235 0.10534668 5.569916 0.2666626 9.467407c0.24395752 4.7082825 0.36590576 8.340576 0.36590576 10.896912c0 3.509552 -0.38623047 5.98645 -1.1588135 7.4306946c-0.7657471 1.4442444 -1.755127 2.1663818 -2.9682007 2.1663818c-0.9352417 0 -1.5891724 -0.45492554 -1.9619141 -1.3648071c-0.08532715 -0.21557617 -0.18078613 -0.44018555 -0.286438 -0.6738281l0 0c0.04046631 0.0014953613 0.081726074 0.0022277832 0.12384033 0.0022277832c1.1994629 0 2.171936 -0.9604187 2.9173584 -2.8812866c0.7522583 -1.9208374 1.1283569 -4.0583496 1.1283569 -6.4124756c0 -3.1484985 -0.32867432 -5.0910034 -0.98602295 -5.8275757c1.2208862 -5.0198364 2.0739746 -9.28772 2.5592651 -12.80365zm-223.15283 -60.138504c-3.788208 0 -7.6713257 3.8272705 -11.649292 11.481827c-3.9779663 7.6401215 -7.562866 16.847244 -10.754761 27.621399c-0.7996216 -0.15885925 -1.6569214 -0.23829651 -2.5717773 -0.23829651c-2.5277405 0 -4.8555603 0.80155945 -6.98349 2.4046783c-2.1211243 1.5886841 -3.828888 3.8417358 -5.12323 6.7591248c-1.2943726 2.902954 -1.9415588 6.231964 -1.9415588 9.98703c0 3.3217773 0.48794556 5.8997803 1.4637756 7.7339783c0.9826355 1.834198 2.2194214 2.7513123 3.7102966 2.7513123c1.260498 0 2.3752747 -0.6788025 3.3443604 -2.0364075c0.9690552 -1.357605 1.4536133 -3.3362122 1.4536133 -5.9358826c0 -1.357605 -0.1694336 -2.8451843 -0.50827026 -4.462738c-0.07141113 -0.34103394 -0.14782715 -0.6107788 -0.22918701 -0.80929565l0 0c0.54244995 -0.39770508 1.0965881 -0.8428345 1.6624756 -1.3354492c0.9623108 -0.8521118 1.6061096 -1.2998047 1.9313965 -1.3431396l0 0c-1.9788208 7.2790527 -3.8322754 16.052887 -5.560364 26.321564c-1.721283 10.254211 -2.5819397 18.508148 -2.5819397 24.76175c0 4.9682617 0.528595 8.716095 1.5857544 11.243561c1.05719 2.5274353 2.2600708 4.094452 3.6086426 4.70105c1.3553467 0.6210022 3.7373962 0.9315491 7.146118 0.9315491c-1.4976501 -4.072815 -2.2464905 -7.481262 -2.2464905 -10.225342c0 -6.5713806 0.74542236 -15.460785 2.2363586 -26.668182c1.4976196 -11.207428 3.2901 -21.613312 5.3773804 -31.21759c0.7860718 0.14440918 1.7856445 0.5487976 2.9987183 1.2131653c1.2197876 0.6643677 2.249878 1.4081421 3.09021 2.2313843l-4.9301147 49.50186l11.659424 0l10.246521 -102.33998c-2.107605 -2.0219574 -4.2524414 -3.0329285 -6.4345703 -3.0329285zm32.04425 113.50954c-0.33691406 3.2164001 -0.7391968 5.5374146 -1.2067871 6.9630737c-0.48114014 1.5020142 -0.85046387 2.2530212 -1.1079712 2.2530212c-0.27789307 0 -0.4845581 -0.158844 -0.6201172 -0.47659302c-0.13549805 -0.3177185 -0.2033081 -0.70043945 -0.2033081 -1.1481934c0 -2.926178 1.0460815 -5.4566345 3.1381836 -7.5913086zm-11.020691 -107.35701l-11.984741 3.4445496l-6.871704 68.60939c-0.35235596 3.7406006 -0.52856445 6.816864 -0.52856445 9.22879c0 6.065857 0.73864746 10.7091675 2.2160034 13.92984c1.477356 3.2062378 3.3985596 4.809387 5.763672 4.809387c2.6361694 0 5.275696 -1.8703308 7.91864 -5.6109314c0.68743896 -0.970459 1.3538818 -2.2402954 1.9993896 -3.8095398l0 0c0.34448242 1.2696533 0.7468872 2.4095154 1.2072144 3.4195862c1.8364868 4.00058 4.123657 6.000885 6.86145 6.000885c0.1126709 0 0.22375488 -0.0014038086 0.333313 -0.004180908l0 0c-0.6343384 0.82702637 -1.2503052 1.7166138 -1.8479004 2.6688232c-2.1482544 3.437317 -3.222351 8.145599 -3.222351 14.124817c0 5.0837708 0.80981445 8.968842 2.4294434 11.655151c1.61969 2.6863098 3.574768 4.02948 5.8653564 4.02948c2.8665771 0 5.4451294 -1.8197632 7.7356567 -5.4592896c2.2973633 -3.6250916 3.8898926 -10.080902 4.777649 -19.367462l0.78271484 -7.907318c2.0940552 -1.1553955 4.1812744 -3.7333984 6.26178 -7.7339783c0.21392822 -0.41152954 0.42492676 -0.8585205 0.6331177 -1.3410339l0 0c0.38336182 1.2189941 0.8297119 2.3087158 1.3389893 3.269104c2.0601196 3.8706055 4.7945557 5.805908 8.203308 5.805908c2.8191528 0 5.411255 -1.7980957 7.776367 -5.394287c2.3718872 -3.5961914 4.282898 -8.593323 5.7331543 -14.991394c1.4570312 -6.398041 2.3312378 -13.092163 2.6226196 -20.082367c0.729187 -0.2479248 1.4869385 -0.6224365 2.2731323 -1.1235352l0 0l-4.0803833 41.049988l11.649292 0l5.133423 -51.906555c0.67767334 -1.3287048 1.2469482 -2.2819214 1.7077637 -2.8596191c0.3991089 -0.49310303 0.8599243 -0.7757263 1.3824463 -0.8479614l0 0c-0.0032348633 0.29208374 0.020507812 0.66137695 0.07116699 1.1079102c0.1965332 2.1375122 0.5421753 3.9500427 1.0368652 5.437622c0.49468994 1.4731445 1.4265137 2.2097168 2.7954102 2.2097168c1.8161621 0 3.2359009 -1.2637329 4.2592163 -3.7911682c0.2609253 -0.6444092 0.4885254 -1.3127747 0.68292236 -2.005066l0 0l-2.5314941 25.488678c-0.352417 3.7406006 -0.5286255 6.816864 -0.5286255 9.22879c0 6.065857 0.73864746 10.7091675 2.2160034 13.92984c1.477356 3.2062378 3.3985596 4.809387 5.763672 4.809387c2.6361694 0 5.275757 -1.8703308 7.918701 -5.6109314c0.5845947 -0.82528687 1.1539917 -1.8670654 1.708252 -3.1253967l0 0c0.33685303 1.4850159 0.7651367 2.7940063 1.28479 3.926941c1.477356 3.2062378 3.3985596 4.809387 5.763672 4.809387c2.284668 0 4.5718994 -1.4047852 6.8616333 -4.2143555l0 0l-0.34124756 3.4127808l11.649353 0l4.4523315 -44.82248c0.44726562 -3.2207031 0.9961548 -5.712036 1.6467285 -7.4740295c0.65057373 -1.7764282 1.3045654 -2.6646423 1.9619141 -2.6646423c0.630249 0 0.94537354 1.3359375 0.94537354 4.0078125c0 1.6753235 -0.14233398 3.9716797 -0.42694092 6.889099c-0.27789307 2.917389 -0.5794678 5.8997803 -0.9047241 8.947144c-0.08129883 0.6210327 -0.24060059 2.058075 -0.4777832 4.3111267c-0.23040771 2.2530212 -0.45404053 4.6071777 -0.67089844 7.0624084c-0.21685791 2.4552307 -0.32525635 4.70105 -0.32525635 6.7374573c0 4.9537964 0.71154785 9.163788 2.1346436 12.630005c1.4231567 3.4517822 3.6018677 5.1776733 6.536255 5.1776733c1.8051147 0 3.5500488 -0.99154663 5.234741 -2.9746094l0 0l-0.21600342 2.1730347l11.649292 0l4.4523315 -44.82248c0.44726562 -3.3073425 1.0029907 -5.849243 1.6671143 -7.6256714c0.67089844 -1.7764282 1.3824463 -2.6646423 2.1346436 -2.6646423c0.3795166 0 0.5692749 1.0326233 0.5692749 3.097931c0 0.9243164 -0.050842285 1.8197327 -0.15246582 2.6863098l-4.899658 49.328552l11.659485 0l4.4523315 -44.82248c0.44049072 -3.2207031 0.98602295 -5.712036 1.6365967 -7.4740295c0.65057373 -1.7764282 1.3079224 -2.6646423 1.9720459 -2.6646423c0.630249 0 0.94537354 1.3359375 0.94537354 4.0078125c0 1.6753235 -0.14233398 3.9716797 -0.42694092 6.889099c-0.27783203 2.917389 -0.57940674 5.8997803 -0.9046631 8.947144c-0.08135986 0.6210327 -0.24060059 2.058075 -0.4777832 4.3111267c-0.23040771 2.2530212 -0.45404053 4.6071777 -0.67089844 7.0624084c-0.21685791 2.4552307 -0.32531738 4.70105 -0.32531738 6.7374573c0 4.9537964 0.7116089 9.163788 2.1347046 12.630005c1.4231567 3.4517822 3.6018677 5.1776733 6.536194 5.1776733c2.459961 0 4.8081665 -1.8414307 7.0444946 -5.524292c0.2788086 -0.45947266 0.5557251 -0.98880005 0.83081055 -1.5879211l0 0c0.680603 1.6663513 1.5228271 3.098297 2.5266113 4.2958984c1.5858154 1.877533 3.4866943 2.8163147 5.7026978 2.8163147c2.1143188 0 4.211731 -0.83047485 6.2922363 -2.4913635c2.0805054 -1.6608887 3.8492432 -4.4410706 5.3062134 -8.340576c1.4638062 -3.91391 2.1956787 -8.903839 2.1956787 -14.969696c0 -2.469696 -0.105041504 -6.4052734 -0.3151245 -11.806793c-0.49468994 -13.186066 -0.86743164 -26.451553 -1.1181641 -39.79648l-11.476501 3.2929077c-1.2401123 8.420013 -2.456604 15.764038 -3.649292 22.032104c-1.1859131 6.2536316 -2.5142212 12.182312 -3.9847412 17.78601c-0.88775635 0.96765137 -1.7213135 2.758545 -2.5006104 5.37265c-0.7504883 2.517212 -1.1395874 5.42276 -1.1674194 8.716705l0 0c-0.5404663 1.1646118 -1.189148 1.7469177 -1.946106 1.7469177c-0.50823975 0 -0.83691406 -0.18774414 -0.98602295 -0.56326294c-0.14227295 -0.3899231 -0.21343994 -1.1409607 -0.21343994 -2.2530212c0 -1.31427 0.12878418 -3.2207031 0.3862915 -5.719269c0.26428223 -2.4985657 0.55908203 -5.112671 0.8843384 -7.8423157c0.5489502 -4.5782776 0.97247314 -8.492218 1.2706299 -11.741791c0.30499268 -3.2640076 0.4574585 -6.275299 0.4574585 -9.033813c0 -5.878113 -0.75561523 -10.319214 -2.2668457 -13.323257c-1.5044556 -3.0040588 -3.4934082 -4.5060883 -5.966919 -4.5060883c-3.9711914 0 -6.6277466 2.2169342 -7.9695435 6.6508026c-0.36590576 -4.520523 -2.7445679 -6.780777 -7.1359253 -6.780777c-3.3477783 0 -5.3706055 1.2781677 -6.0686035 3.834488l0.7420044 -3.162918l-11.659424 0l-4.4328003 44.59555l0 0c-0.7526245 3.829773 -1.3782349 6.382324 -1.8769531 7.6576233c-0.57598877 1.4587097 -1.2841797 2.1880493 -2.1245117 2.1880493c-0.50823975 0 -0.83691406 -0.18774414 -0.98602295 -0.56326294c-0.14227295 -0.3899231 -0.21343994 -1.1409607 -0.21343994 -2.2530212c0 -1.31427 0.12872314 -3.2207031 0.3862915 -5.719269c0.26428223 -2.4985657 0.55908203 -5.112671 0.8843384 -7.8423157c0.5489502 -4.5782776 0.97247314 -8.492218 1.2706299 -11.741791c0.30499268 -3.2640076 0.4574585 -6.275299 0.4574585 -9.033813c0 -5.878113 -0.75897217 -10.319214 -2.2769775 -13.323257c-1.5112305 -3.0040588 -3.4968262 -4.5060883 -5.956787 -4.5060883c-3.1783447 0 -4.8826904 0.33940125 -5.113098 1.0182037l2.8360596 -27.599731l-11.984741 3.4445496l-6.762329 67.637405l0 0c-0.53692627 3.6915283 -1.1813965 6.319092 -1.9334106 7.8827515c-0.8267822 1.7330933 -1.6704712 2.59964 -2.531128 2.59964c-0.5828247 0 -0.93859863 -0.1227417 -1.0673828 -0.36828613c-0.12194824 -0.24551392 -0.18292236 -0.837677 -0.18292236 -1.7764282c0 -1.2854004 0.07110596 -2.491333 0.21343994 -3.617859l3.781433 -37.803406l3.7611084 0l1.0165405 -10.875244l-3.720459 0l2.1651611 -21.53386l-11.974548 3.4445496l-1.8399048 18.08931l-2.0838623 0l-1.0165405 10.875244l2.043213 0l-3.3433838 33.33661l0 0c-0.52941895 3.5588074 -1.161438 6.102051 -1.8961792 7.62973c-0.8267822 1.7330933 -1.6704712 2.59964 -2.531128 2.59964c-0.5828247 0 -0.93859863 -0.1227417 -1.0673828 -0.36828613c-0.12194824 -0.24551392 -0.18292236 -0.837677 -0.18292236 -1.7764282c0 -1.2854004 0.07110596 -2.4985657 0.21343994 -3.6395264l4.838623 -48.656982l-11.659485 0l-1.1140137 11.21698c-0.12982178 -2.794632 -0.6195679 -5.26268 -1.4693604 -7.4041443c-0.9962158 -2.5418854 -2.3651123 -3.8128357 -4.1067505 -3.8128357c-1.5722046 0 -2.9987183 0.80155945 -4.279541 2.4046936c-0.892395 1.1128082 -1.4489746 1.9598694 -1.6697388 2.5412292l0 0l0.81585693 -4.945923l-11.659485 0l-1.84729 18.584686l0 0c-1.2138062 0.97836304 -2.2989502 1.5532532 -3.255249 1.7247009l0 0c-0.32141113 -14.333923 -3.4124756 -21.5009 -9.273193 -21.5009c-4.2625732 0 -7.786499 2.8957367 -10.571777 8.68721c-2.7785034 5.777008 -4.781006 12.528931 -6.0076294 20.255676c-1.2197876 7.7123413 -1.8297119 14.738647 -1.8297119 21.078918c0 0.29562378 0.0013427734 0.58843994 0.0040893555 0.8784485l0 0c-0.5947876 2.8708496 -1.2061157 5.0477295 -1.8339233 6.5305786c-1.0639038 2.513031 -1.7687378 3.892273 -2.1143188 4.1378174l6.038086 -60.377136l-11.659424 0l0.078186035 2.012848l0 0c-0.032348633 -0.05050659 -0.06518555 -0.10041809 -0.09857178 -0.14974976c-1.1317139 -1.6897888 -2.6869507 -2.534668 -4.6657715 -2.534668c-3.727234 0 -6.9055786 2.7151947 -9.534973 8.145599c-2.6293945 5.4303894 -4.5912476 11.936768 -5.88562 19.519104c-1.2875977 7.582367 -1.9313965 14.818085 -1.9313965 21.707184c0 0.088378906 1.2207031E-4 0.17648315 3.6621094E-4 0.26437378l0 0c-0.30358887 1.1897278 -0.63049316 2.1486816 -0.9807129 2.876892c-0.8267822 1.7330933 -1.6704712 2.59964 -2.531128 2.59964c-0.5828247 0 -0.93859863 -0.1227417 -1.0673828 -0.36828613c-0.12194824 -0.24551392 -0.1829834 -0.837677 -0.1829834 -1.7764282c0 -1.2854004 0.07116699 -2.491333 0.21350098 -3.617859l7.573059 -75.80177z" fill-rule="evenodd"/></g></svg>